<svg id="svg" version="1.1" xmlns="http://www.w3.org/2000/svg" xmlns:xlink="http://www.w3.org/1999/xlink" width="400" height="505.9190031152648" viewBox="0, 0, 400,505.9190031152648"><g id="svgg"><path id="path0" d="M144.000 1.000 C 144.000 1.622,143.773 2.000,143.400 2.000 C 142.956 2.000,142.800 2.467,142.800 3.800 C 142.800 5.133,142.644 5.600,142.200 5.600 C 141.747 5.600,141.600 6.089,141.600 7.600 C 141.600 9.111,141.453 9.600,141.000 9.600 C 140.556 9.600,140.400 10.067,140.400 11.400 C 140.400 12.733,140.244 13.200,139.800 13.200 C 139.335 13.200,139.200 13.728,139.200 15.553 C 139.200 17.570,139.086 17.937,138.400 18.116 C 137.746 18.287,137.600 18.662,137.600 20.163 C 137.600 21.498,137.442 22.000,137.022 22.000 C 136.616 22.000,136.408 22.566,136.322 23.900 C 136.241 25.158,136.031 25.766,135.700 25.700 C 135.361 25.632,135.200 26.165,135.200 27.357 C 135.200 28.550,135.007 29.188,134.600 29.345 C 134.189 29.502,134.000 30.145,134.000 31.387 C 134.000 32.732,133.845 33.200,133.400 33.200 C 132.956 33.200,132.800 33.667,132.800 35.000 C 132.800 36.333,132.644 36.800,132.200 36.800 C 131.747 36.800,131.600 37.289,131.600 38.800 C 131.600 40.311,131.453 40.800,131.000 40.800 C 130.533 40.800,130.400 41.333,130.400 43.200 C 130.400 45.067,130.267 45.600,129.800 45.600 C 129.356 45.600,129.200 46.067,129.200 47.400 C 129.200 48.733,129.044 49.200,128.600 49.200 C 128.147 49.200,128.000 49.689,128.000 51.200 C 128.000 52.933,127.893 53.200,127.200 53.200 C 126.519 53.200,126.400 53.467,126.400 55.000 C 126.400 56.333,126.244 56.800,125.800 56.800 C 125.358 56.800,125.200 57.262,125.200 58.557 C 125.200 59.750,125.007 60.388,124.600 60.545 C 124.189 60.702,124.000 61.345,124.000 62.587 C 124.000 63.932,123.845 64.400,123.400 64.400 C 122.958 64.400,122.800 64.862,122.800 66.157 C 122.800 67.350,122.607 67.988,122.200 68.145 C 121.767 68.311,121.600 68.990,121.600 70.587 C 121.600 72.287,121.461 72.800,121.000 72.800 C 120.547 72.800,120.400 73.289,120.400 74.800 C 120.400 76.311,120.253 76.800,119.800 76.800 C 119.356 76.800,119.200 77.267,119.200 78.600 C 119.200 79.933,119.044 80.400,118.600 80.400 C 118.158 80.400,118.000 80.861,118.000 82.153 C 118.000 83.570,117.847 83.947,117.200 84.116 C 116.550 84.286,116.400 84.662,116.400 86.120 C 116.400 87.346,116.210 87.987,115.800 88.145 C 115.408 88.295,115.200 88.918,115.200 89.945 C 115.200 90.971,114.992 91.594,114.600 91.745 C 114.208 91.895,114.000 92.518,114.000 93.545 C 114.000 94.571,113.792 95.194,113.400 95.345 C 112.992 95.501,112.800 96.141,112.800 97.345 C 112.800 98.549,112.608 99.188,112.200 99.345 C 111.767 99.511,111.600 100.190,111.600 101.787 C 111.600 103.487,111.461 104.000,111.000 104.000 C 110.556 104.000,110.400 104.467,110.400 105.800 C 110.400 107.133,110.244 107.600,109.800 107.600 C 109.347 107.600,109.200 108.089,109.200 109.600 C 109.200 111.111,109.053 111.600,108.600 111.600 C 108.156 111.600,108.000 112.067,108.000 113.400 C 108.000 114.733,107.844 115.200,107.400 115.200 C 106.949 115.200,106.800 115.684,106.800 117.153 C 106.800 118.770,106.662 119.143,106.000 119.316 C 105.369 119.481,105.200 119.862,105.200 121.120 C 105.200 122.168,104.994 122.793,104.600 122.945 C 104.208 123.095,104.000 123.718,104.000 124.738 C 104.000 125.640,103.746 126.513,103.400 126.800 C 103.003 127.130,102.800 128.025,102.800 129.449 C 102.800 131.094,102.659 131.600,102.200 131.600 C 101.756 131.600,101.600 132.067,101.600 133.400 C 101.600 134.733,101.444 135.200,101.000 135.200 C 100.556 135.200,100.400 135.667,100.400 137.000 C 100.400 138.333,100.244 138.800,99.800 138.800 C 99.347 138.800,99.200 139.289,99.200 140.800 C 99.200 142.311,99.053 142.800,98.600 142.800 C 98.156 142.800,98.000 143.267,98.000 144.600 C 98.000 145.933,97.844 146.400,97.400 146.400 C 96.958 146.400,96.800 146.862,96.800 148.157 C 96.800 149.350,96.607 149.988,96.200 150.145 C 95.792 150.301,95.600 150.940,95.600 152.141 C 95.600 153.570,95.448 153.947,94.800 154.116 C 94.169 154.281,94.000 154.662,94.000 155.920 C 94.000 156.968,93.794 157.593,93.400 157.745 C 92.605 158.050,92.585 160.743,93.376 161.046 C 93.692 161.167,94.066 161.792,94.207 162.433 C 94.348 163.075,94.719 163.600,95.032 163.600 C 95.344 163.600,95.600 163.960,95.600 164.400 C 95.600 164.844,95.867 165.200,96.200 165.200 C 96.600 165.200,96.800 165.600,96.800 166.400 C 96.800 167.200,97.000 167.600,97.400 167.600 C 97.800 167.600,98.000 168.000,98.000 168.800 C 98.000 169.600,98.200 170.000,98.600 170.000 C 99.000 170.000,99.200 170.400,99.200 171.200 C 99.200 172.000,99.400 172.400,99.800 172.400 C 100.130 172.400,100.400 172.670,100.400 173.000 C 100.400 173.330,100.670 173.600,101.000 173.600 C 101.401 173.600,101.600 174.001,101.600 174.813 C 101.600 175.521,101.849 176.121,102.200 176.255 C 102.530 176.382,102.800 176.922,102.800 177.455 C 102.800 177.989,103.059 178.524,103.376 178.646 C 103.692 178.767,104.063 179.377,104.200 180.000 C 104.337 180.623,104.719 181.237,105.050 181.364 C 105.380 181.491,105.539 181.776,105.402 181.997 C 105.265 182.219,105.523 182.400,105.976 182.400 C 106.625 182.400,106.800 182.655,106.800 183.600 C 106.800 184.400,107.000 184.800,107.400 184.800 C 107.801 184.800,108.000 185.201,108.000 186.013 C 108.000 186.721,108.249 187.321,108.600 187.455 C 108.930 187.582,109.200 188.122,109.200 188.655 C 109.200 189.189,109.470 189.729,109.800 189.855 C 110.130 189.982,110.400 190.336,110.400 190.643 C 110.400 190.949,110.670 191.200,111.000 191.200 C 111.400 191.200,111.600 191.600,111.600 192.400 C 111.600 193.200,111.800 193.600,112.200 193.600 C 112.600 193.600,112.800 194.000,112.800 194.800 C 112.800 195.600,113.000 196.000,113.400 196.000 C 113.775 196.000,114.000 196.379,114.000 197.013 C 114.000 197.569,114.270 198.129,114.600 198.255 C 114.930 198.382,115.200 198.742,115.200 199.055 C 115.200 199.369,115.470 199.729,115.800 199.855 C 116.130 199.982,116.400 200.533,116.400 201.080 C 116.400 201.738,116.671 202.146,117.200 202.284 C 117.767 202.432,118.000 202.830,118.000 203.647 C 118.000 204.405,118.205 204.800,118.600 204.800 C 119.000 204.800,119.200 205.200,119.200 206.000 C 119.200 206.800,119.400 207.200,119.800 207.200 C 120.130 207.200,120.400 207.470,120.400 207.800 C 120.400 208.130,120.670 208.400,121.000 208.400 C 121.419 208.400,121.600 208.822,121.600 209.800 C 121.600 210.778,121.781 211.200,122.200 211.200 C 122.600 211.200,122.800 211.600,122.800 212.400 C 122.800 213.200,123.000 213.600,123.400 213.600 C 123.775 213.600,124.000 213.979,124.000 214.613 C 124.000 215.169,124.270 215.729,124.600 215.855 C 124.930 215.982,125.200 216.522,125.200 217.055 C 125.200 217.589,125.470 218.129,125.800 218.255 C 126.130 218.382,126.400 218.736,126.400 219.043 C 126.400 219.349,126.760 219.600,127.200 219.600 C 127.848 219.600,128.000 219.867,128.000 221.000 C 128.000 221.978,128.181 222.400,128.600 222.400 C 128.975 222.400,129.200 222.779,129.200 223.413 C 129.200 223.969,129.470 224.529,129.800 224.655 C 130.142 224.787,130.400 225.383,130.400 226.043 C 130.400 226.805,130.605 227.200,131.000 227.200 C 131.330 227.200,131.600 227.470,131.600 227.800 C 131.600 228.130,131.870 228.400,132.200 228.400 C 132.601 228.400,132.800 228.801,132.800 229.613 C 132.800 230.321,133.049 230.921,133.400 231.055 C 133.730 231.182,134.000 231.722,134.000 232.255 C 134.000 232.789,134.270 233.329,134.600 233.455 C 134.930 233.582,135.200 234.122,135.200 234.655 C 135.200 235.189,135.470 235.729,135.800 235.855 C 136.130 235.982,136.400 236.336,136.400 236.643 C 136.400 236.949,136.670 237.200,137.000 237.200 C 137.400 237.200,137.600 237.600,137.600 238.400 C 137.600 239.333,137.778 239.600,138.400 239.600 C 139.016 239.600,139.200 239.867,139.200 240.757 C 139.200 241.417,139.458 242.013,139.800 242.145 C 140.130 242.271,140.400 242.836,140.400 243.400 C 140.400 243.964,140.670 244.529,141.000 244.655 C 141.330 244.782,141.600 245.136,141.600 245.443 C 141.600 245.749,141.870 246.000,142.200 246.000 C 142.600 246.000,142.800 246.400,142.800 247.200 C 142.800 248.000,143.000 248.400,143.400 248.400 C 143.775 248.400,144.000 248.779,144.000 249.413 C 144.000 249.969,144.270 250.529,144.600 250.655 C 144.930 250.782,145.200 251.307,145.200 251.823 C 145.200 252.338,145.439 252.904,145.730 253.080 C 146.022 253.256,146.380 253.726,146.527 254.125 C 146.674 254.524,146.976 254.739,147.197 254.602 C 147.434 254.455,147.600 254.861,147.600 255.589 C 147.600 256.295,147.847 256.920,148.176 257.046 C 148.492 257.167,148.866 257.792,149.007 258.433 C 149.148 259.075,149.519 259.600,149.832 259.600 C 150.196 259.600,150.400 260.030,150.400 260.800 C 150.400 261.600,150.600 262.000,151.000 262.000 C 151.330 262.000,151.600 262.270,151.600 262.600 C 151.600 262.930,151.870 263.200,152.200 263.200 C 152.619 263.200,152.800 263.622,152.800 264.600 C 152.800 265.578,152.981 266.000,153.400 266.000 C 153.775 266.000,154.000 266.379,154.000 267.013 C 154.000 267.569,154.270 268.129,154.600 268.255 C 154.930 268.382,155.200 268.922,155.200 269.455 C 155.200 269.989,155.470 270.529,155.800 270.655 C 156.130 270.782,156.400 271.136,156.400 271.443 C 156.400 271.749,156.670 272.000,157.000 272.000 C 157.400 272.000,157.600 272.400,157.600 273.200 C 157.600 274.000,157.800 274.400,158.200 274.400 C 158.533 274.400,158.800 274.756,158.800 275.200 C 158.800 275.640,159.160 276.360,159.600 276.800 C 160.040 277.240,160.400 278.050,160.400 278.600 C 160.400 279.222,160.627 279.600,161.000 279.600 C 161.330 279.600,161.600 279.870,161.600 280.200 C 161.600 280.530,161.870 280.800,162.200 280.800 C 162.600 280.800,162.800 281.200,162.800 282.000 C 162.800 282.800,163.000 283.200,163.400 283.200 C 163.801 283.200,164.000 283.601,164.000 284.413 C 164.000 285.121,164.249 285.721,164.600 285.855 C 164.930 285.982,165.200 286.522,165.200 287.055 C 165.200 287.589,165.470 288.129,165.800 288.255 C 166.130 288.382,166.400 288.736,166.400 289.043 C 166.400 289.349,166.670 289.600,167.000 289.600 C 167.400 289.600,167.600 290.000,167.600 290.800 C 167.600 291.600,167.800 292.000,168.200 292.000 C 168.575 292.000,168.800 292.379,168.800 293.013 C 168.800 293.569,169.070 294.129,169.400 294.255 C 169.730 294.382,170.000 294.811,170.000 295.208 C 170.000 295.606,170.630 296.580,171.400 297.373 C 172.237 298.234,172.800 299.214,172.800 299.807 C 172.800 300.423,173.028 300.800,173.400 300.800 C 173.800 300.800,174.000 301.200,174.000 302.000 C 174.000 302.800,174.200 303.200,174.600 303.200 C 175.000 303.200,175.200 303.600,175.200 304.400 C 175.200 305.200,175.400 305.600,175.800 305.600 C 176.130 305.600,176.400 305.870,176.400 306.200 C 176.400 306.530,176.670 306.800,177.000 306.800 C 177.401 306.800,177.600 307.201,177.600 308.013 C 177.600 308.721,177.849 309.321,178.200 309.455 C 178.530 309.582,178.800 310.122,178.800 310.655 C 178.800 311.189,179.059 311.724,179.376 311.846 C 179.692 311.967,180.066 312.592,180.207 313.233 C 180.348 313.875,180.629 314.400,180.832 314.400 C 181.034 314.400,181.200 314.670,181.200 315.000 C 181.200 315.333,181.556 315.600,182.000 315.600 C 182.622 315.600,182.800 315.867,182.800 316.800 C 182.800 317.600,183.000 318.000,183.400 318.000 C 183.801 318.000,184.000 318.401,184.000 319.213 C 184.000 319.921,184.249 320.521,184.600 320.655 C 184.930 320.782,185.200 321.322,185.200 321.855 C 185.200 322.389,185.470 322.929,185.800 323.055 C 186.130 323.182,186.400 323.536,186.400 323.843 C 186.400 324.149,186.670 324.400,187.000 324.400 C 187.400 324.400,187.600 324.800,187.600 325.600 C 187.600 326.400,187.800 326.800,188.200 326.800 C 188.600 326.800,188.800 327.200,188.800 328.000 C 188.800 328.800,189.000 329.200,189.400 329.200 C 189.775 329.200,190.000 329.579,190.000 330.213 C 190.000 330.769,190.270 331.329,190.600 331.455 C 190.930 331.582,191.200 331.953,191.200 332.280 C 191.200 332.607,191.560 332.969,192.000 333.084 C 192.567 333.232,192.800 333.630,192.800 334.447 C 192.800 335.205,193.005 335.600,193.400 335.600 C 193.800 335.600,194.000 336.000,194.000 336.800 C 194.000 337.600,194.200 338.000,194.600 338.000 C 195.000 338.000,195.200 338.400,195.200 339.200 C 195.200 340.000,195.400 340.400,195.800 340.400 C 196.133 340.400,196.400 340.756,196.400 341.200 C 196.400 341.640,196.625 341.955,196.900 341.900 C 197.199 341.840,197.450 342.322,197.525 343.100 C 197.603 343.905,197.869 344.400,198.225 344.400 C 198.597 344.400,198.800 344.824,198.800 345.600 C 198.800 346.400,199.000 346.800,199.400 346.800 C 199.775 346.800,200.000 347.179,200.000 347.813 C 200.000 348.369,200.270 348.929,200.600 349.055 C 200.930 349.182,201.200 349.536,201.200 349.843 C 201.200 350.149,201.470 350.400,201.800 350.400 C 202.204 350.400,202.400 350.804,202.400 351.637 C 202.400 352.538,202.617 352.932,203.200 353.084 C 203.767 353.232,204.000 353.630,204.000 354.447 C 204.000 355.205,204.205 355.600,204.600 355.600 C 204.975 355.600,205.200 355.979,205.200 356.613 C 205.200 357.169,205.470 357.729,205.800 357.855 C 206.130 357.982,206.400 358.336,206.400 358.643 C 206.400 358.949,206.670 359.200,207.000 359.200 C 207.400 359.200,207.600 359.600,207.600 360.400 C 207.600 361.200,207.800 361.600,208.200 361.600 C 208.601 361.600,208.800 362.001,208.800 362.813 C 208.800 363.521,209.049 364.121,209.400 364.255 C 209.730 364.382,210.000 364.922,210.000 365.455 C 210.000 365.989,210.270 366.529,210.600 366.655 C 210.930 366.782,211.200 367.136,211.200 367.443 C 211.200 367.749,211.470 368.000,211.800 368.000 C 212.200 368.000,212.400 368.400,212.400 369.200 C 212.400 370.000,212.600 370.400,213.000 370.400 C 213.379 370.400,213.600 370.782,213.600 371.437 C 213.600 372.138,213.859 372.543,214.400 372.684 C 214.958 372.830,215.200 373.230,215.200 374.004 C 215.200 374.622,215.466 375.216,215.800 375.345 C 216.130 375.471,216.400 375.851,216.400 376.187 C 216.400 376.524,216.670 376.800,217.000 376.800 C 217.400 376.800,217.600 377.200,217.600 378.000 C 217.600 378.800,217.800 379.200,218.200 379.200 C 218.600 379.200,218.800 379.600,218.800 380.400 C 218.800 381.200,219.000 381.600,219.400 381.600 C 219.775 381.600,220.000 381.979,220.000 382.613 C 220.000 383.169,220.270 383.729,220.600 383.855 C 220.930 383.982,221.200 384.342,221.200 384.655 C 221.200 384.969,221.470 385.329,221.800 385.455 C 222.142 385.587,222.400 386.183,222.400 386.843 C 222.400 387.605,222.605 388.000,223.000 388.000 C 223.585 388.000,223.769 388.453,223.623 389.531 C 223.583 389.823,223.922 390.159,224.375 390.278 C 224.968 390.433,225.200 390.818,225.200 391.647 C 225.200 392.405,225.405 392.800,225.800 392.800 C 226.130 392.800,226.400 393.070,226.400 393.400 C 226.400 393.730,226.670 394.000,227.000 394.000 C 227.419 394.000,227.600 394.422,227.600 395.400 C 227.600 396.378,227.781 396.800,228.200 396.800 C 228.600 396.800,228.800 397.200,228.800 398.000 C 228.800 398.800,229.000 399.200,229.400 399.200 C 229.775 399.200,230.000 399.579,230.000 400.213 C 230.000 400.769,230.270 401.329,230.600 401.455 C 230.930 401.582,231.200 401.936,231.200 402.243 C 231.200 402.549,231.470 402.800,231.800 402.800 C 232.200 402.800,232.400 403.200,232.400 404.000 C 232.400 404.800,232.600 405.200,233.000 405.200 C 233.369 405.200,233.600 405.575,233.600 406.176 C 233.600 406.713,233.783 407.266,234.006 407.404 C 234.229 407.542,234.670 408.272,234.986 409.027 C 235.301 409.782,235.748 410.400,235.980 410.400 C 236.211 410.400,236.400 410.670,236.400 411.000 C 236.400 411.330,236.670 411.600,237.000 411.600 C 237.400 411.600,237.600 412.000,237.600 412.800 C 237.600 413.600,237.800 414.000,238.200 414.000 C 238.600 414.000,238.800 414.400,238.800 415.200 C 238.800 416.000,239.000 416.400,239.400 416.400 C 239.800 416.400,240.000 416.800,240.000 417.600 C 240.000 418.400,240.200 418.800,240.600 418.800 C 240.933 418.800,241.200 419.156,241.200 419.600 C 241.200 420.044,241.467 420.400,241.800 420.400 C 242.200 420.400,242.400 420.800,242.400 421.600 C 242.400 422.400,242.600 422.800,243.000 422.800 C 243.400 422.800,243.600 423.200,243.600 424.000 C 243.600 424.800,243.800 425.200,244.200 425.200 C 244.530 425.200,244.800 425.547,244.800 425.971 C 244.800 426.396,245.035 426.981,245.322 427.271 C 245.610 427.562,245.964 428.115,246.110 428.500 C 246.256 428.885,246.651 429.200,246.987 429.200 C 247.401 429.200,247.600 429.589,247.600 430.400 C 247.600 431.200,247.800 431.600,248.200 431.600 C 248.600 431.600,248.800 432.000,248.800 432.800 C 248.800 433.600,249.000 434.000,249.400 434.000 C 249.800 434.000,250.000 434.400,250.000 435.200 C 250.000 436.000,250.200 436.400,250.600 436.400 C 250.930 436.400,251.200 436.670,251.200 437.000 C 251.200 437.330,251.470 437.600,251.800 437.600 C 252.201 437.600,252.400 438.001,252.400 438.813 C 252.400 439.521,252.649 440.121,253.000 440.255 C 253.330 440.382,253.600 440.922,253.600 441.455 C 253.600 441.989,253.870 442.529,254.200 442.655 C 254.530 442.782,254.800 443.136,254.800 443.443 C 254.800 443.917,265.612 444.000,327.400 444.000 L 400.000 444.000 400.000 442.800 C 400.000 442.140,399.820 441.600,399.600 441.600 C 399.380 441.600,399.200 441.060,399.200 440.400 C 399.200 439.600,399.000 439.200,398.600 439.200 C 398.199 439.200,398.000 438.799,398.000 437.987 C 398.000 437.279,397.751 436.679,397.400 436.545 C 397.070 436.418,396.800 435.878,396.800 435.345 C 396.800 434.811,396.530 434.271,396.200 434.145 C 395.870 434.018,395.600 433.664,395.600 433.357 C 395.600 433.051,395.330 432.800,395.000 432.800 C 394.600 432.800,394.400 432.400,394.400 431.600 C 394.400 430.800,394.200 430.400,393.800 430.400 C 393.400 430.400,393.200 430.000,393.200 429.200 C 393.200 428.400,393.000 428.000,392.600 428.000 C 392.225 428.000,392.000 427.621,392.000 426.987 C 392.000 426.431,391.730 425.871,391.400 425.745 C 391.070 425.618,390.800 425.258,390.800 424.945 C 390.800 424.631,390.530 424.271,390.200 424.145 C 389.870 424.018,389.600 423.467,389.600 422.920 C 389.600 422.262,389.329 421.854,388.800 421.716 C 388.233 421.568,388.000 421.170,388.000 420.353 C 388.000 419.595,387.795 419.200,387.400 419.200 C 387.000 419.200,386.800 418.800,386.800 418.000 C 386.800 417.200,386.600 416.800,386.200 416.800 C 385.867 416.800,385.600 416.444,385.600 416.000 C 385.600 415.556,385.333 415.200,385.000 415.200 C 384.600 415.200,384.400 414.800,384.400 414.000 C 384.400 413.200,384.200 412.800,383.800 412.800 C 383.425 412.800,383.200 412.421,383.200 411.787 C 383.200 411.231,382.930 410.671,382.600 410.545 C 382.270 410.418,382.000 409.878,382.000 409.345 C 382.000 408.811,381.730 408.271,381.400 408.145 C 381.070 408.018,380.800 407.664,380.800 407.357 C 380.800 407.051,380.530 406.800,380.200 406.800 C 379.796 406.800,379.600 406.396,379.600 405.563 C 379.600 404.662,379.383 404.268,378.800 404.116 C 378.279 403.980,378.000 403.570,378.000 402.941 C 378.000 402.410,377.730 401.871,377.400 401.745 C 377.070 401.618,376.800 401.264,376.800 400.957 C 376.800 400.651,376.530 400.400,376.200 400.400 C 375.800 400.400,375.600 400.000,375.600 399.200 C 375.600 398.400,375.400 398.000,375.000 398.000 C 374.600 398.000,374.400 397.600,374.400 396.800 C 374.400 396.000,374.200 395.600,373.800 395.600 C 373.400 395.600,373.200 395.200,373.200 394.400 C 373.200 393.600,373.000 393.200,372.600 393.200 C 372.267 393.200,372.000 392.844,372.000 392.400 C 372.000 391.956,371.733 391.600,371.400 391.600 C 371.000 391.600,370.800 391.200,370.800 390.400 C 370.800 389.600,370.600 389.200,370.200 389.200 C 369.620 389.200,369.433 388.752,369.571 387.695 C 369.608 387.417,369.370 387.087,369.043 386.961 C 368.716 386.836,368.334 386.208,368.193 385.567 C 368.052 384.925,367.681 384.400,367.368 384.400 C 367.056 384.400,366.800 384.130,366.800 383.800 C 366.800 383.470,366.530 383.200,366.200 383.200 C 365.781 383.200,365.600 382.778,365.600 381.800 C 365.600 380.822,365.419 380.400,365.000 380.400 C 364.600 380.400,364.400 380.000,364.400 379.200 C 364.400 378.400,364.200 378.000,363.800 378.000 C 363.400 378.000,363.200 377.600,363.200 376.800 C 363.200 376.000,363.000 375.600,362.600 375.600 C 362.270 375.600,362.000 375.330,362.000 375.000 C 362.000 374.670,361.730 374.400,361.400 374.400 C 361.000 374.400,360.800 374.000,360.800 373.200 C 360.800 372.400,360.600 372.000,360.200 372.000 C 359.799 372.000,359.600 371.599,359.600 370.787 C 359.600 370.102,359.350 369.479,359.024 369.354 C 358.708 369.233,358.334 368.608,358.193 367.967 C 358.052 367.325,357.771 366.800,357.568 366.800 C 357.366 366.800,357.200 366.530,357.200 366.200 C 357.200 365.867,356.844 365.600,356.400 365.600 C 355.778 365.600,355.600 365.333,355.600 364.400 C 355.600 363.600,355.400 363.200,355.000 363.200 C 354.599 363.200,354.400 362.799,354.400 361.987 C 354.400 361.279,354.151 360.679,353.800 360.545 C 353.470 360.418,353.200 359.878,353.200 359.345 C 353.200 358.811,352.930 358.271,352.600 358.145 C 352.270 358.018,352.000 357.664,352.000 357.357 C 352.000 357.051,351.730 356.800,351.400 356.800 C 351.000 356.800,350.800 356.400,350.800 355.600 C 350.800 354.800,350.600 354.400,350.200 354.400 C 349.825 354.400,349.600 354.021,349.600 353.387 C 349.600 352.831,349.330 352.271,349.000 352.145 C 348.670 352.018,348.400 351.478,348.400 350.945 C 348.400 350.411,348.130 349.871,347.800 349.745 C 347.470 349.618,347.200 349.247,347.200 348.920 C 347.200 348.593,346.840 348.231,346.400 348.116 C 345.833 347.968,345.600 347.570,345.600 346.753 C 345.600 345.995,345.395 345.600,345.000 345.600 C 344.600 345.600,344.400 345.200,344.400 344.400 C 344.400 343.600,344.200 343.200,343.800 343.200 C 343.470 343.200,343.200 342.930,343.200 342.600 C 343.200 342.270,342.930 342.000,342.600 342.000 C 342.200 342.000,342.000 341.600,342.000 340.800 C 342.000 340.000,341.800 339.600,341.400 339.600 C 340.999 339.600,340.800 339.199,340.800 338.387 C 340.800 337.679,340.551 337.079,340.200 336.945 C 339.870 336.818,339.600 336.278,339.600 335.745 C 339.600 335.211,339.330 334.671,339.000 334.545 C 338.670 334.418,338.400 334.064,338.400 333.757 C 338.400 333.451,338.130 333.200,337.800 333.200 C 337.400 333.200,337.200 332.800,337.200 332.000 C 337.200 331.200,337.000 330.800,336.600 330.800 C 336.221 330.800,336.000 330.418,336.000 329.763 C 336.000 329.062,335.741 328.657,335.200 328.516 C 334.642 328.370,334.400 327.970,334.400 327.196 C 334.400 326.578,334.134 325.984,333.800 325.855 C 333.470 325.729,333.200 325.349,333.200 325.013 C 333.200 324.676,332.930 324.400,332.600 324.400 C 332.200 324.400,332.000 324.000,332.000 323.200 C 332.000 322.400,331.800 322.000,331.400 322.000 C 331.000 322.000,330.800 321.600,330.800 320.800 C 330.800 320.000,330.600 319.600,330.200 319.600 C 329.825 319.600,329.600 319.221,329.600 318.587 C 329.600 318.031,329.330 317.471,329.000 317.345 C 328.670 317.218,328.400 316.858,328.400 316.545 C 328.400 316.231,328.130 315.871,327.800 315.745 C 327.458 315.613,327.200 315.017,327.200 314.357 C 327.200 313.595,326.995 313.200,326.600 313.200 C 326.020 313.200,325.833 312.752,325.971 311.695 C 326.008 311.417,325.770 311.087,325.443 310.961 C 325.116 310.836,324.734 310.208,324.593 309.567 C 324.452 308.925,324.081 308.400,323.768 308.400 C 323.456 308.400,323.200 308.130,323.200 307.800 C 323.200 307.470,322.930 307.200,322.600 307.200 C 322.181 307.200,322.000 306.778,322.000 305.800 C 322.000 304.822,321.819 304.400,321.400 304.400 C 321.000 304.400,320.800 304.000,320.800 303.200 C 320.800 302.400,320.600 302.000,320.200 302.000 C 319.825 302.000,319.600 301.621,319.600 300.987 C 319.600 300.431,319.330 299.871,319.000 299.745 C 318.670 299.618,318.400 299.264,318.400 298.957 C 318.400 298.651,318.130 298.400,317.800 298.400 C 317.400 298.400,317.200 298.000,317.200 297.200 C 317.200 296.400,317.000 296.000,316.600 296.000 C 316.225 296.000,316.000 295.621,316.000 294.987 C 316.000 294.431,315.730 293.871,315.400 293.745 C 315.070 293.618,314.800 293.174,314.800 292.757 C 314.800 292.341,314.440 291.640,314.000 291.200 C 313.560 290.760,313.200 290.220,313.200 290.000 C 313.200 289.780,312.930 289.600,312.600 289.600 C 312.200 289.600,312.000 289.200,312.000 288.400 C 312.000 287.600,311.800 287.200,311.400 287.200 C 311.000 287.200,310.800 286.800,310.800 286.000 C 310.800 285.200,310.600 284.800,310.200 284.800 C 309.800 284.800,309.600 284.400,309.600 283.600 C 309.600 282.800,309.400 282.400,309.000 282.400 C 308.667 282.400,308.400 282.044,308.400 281.600 C 308.400 281.156,308.133 280.800,307.800 280.800 C 307.400 280.800,307.200 280.400,307.200 279.600 C 307.200 278.800,307.000 278.400,306.600 278.400 C 306.225 278.400,306.000 278.021,306.000 277.387 C 306.000 276.831,305.730 276.271,305.400 276.145 C 305.070 276.018,304.800 275.664,304.800 275.357 C 304.800 275.051,304.530 274.800,304.200 274.800 C 303.796 274.800,303.600 274.396,303.600 273.563 C 303.600 272.662,303.383 272.268,302.800 272.116 C 302.233 271.968,302.000 271.570,302.000 270.753 C 302.000 269.995,301.795 269.600,301.400 269.600 C 301.025 269.600,300.800 269.221,300.800 268.587 C 300.800 268.031,300.530 267.471,300.200 267.345 C 299.870 267.218,299.600 266.864,299.600 266.557 C 299.600 266.251,299.330 266.000,299.000 266.000 C 298.600 266.000,298.400 265.600,298.400 264.800 C 298.400 264.000,298.200 263.600,297.800 263.600 C 297.399 263.600,297.200 263.199,297.200 262.387 C 297.200 261.679,296.951 261.079,296.600 260.945 C 296.270 260.818,296.000 260.387,296.000 259.986 C 296.000 259.585,295.730 258.987,295.400 258.657 C 295.070 258.327,294.800 257.864,294.800 257.629 C 294.800 257.393,294.530 257.200,294.200 257.200 C 293.800 257.200,293.600 256.800,293.600 256.000 C 293.600 255.200,293.400 254.800,293.000 254.800 C 292.621 254.800,292.400 254.418,292.400 253.763 C 292.400 253.062,292.141 252.657,291.600 252.516 C 291.033 252.368,290.800 251.970,290.800 251.153 C 290.800 250.395,290.595 250.000,290.200 250.000 C 289.867 250.000,289.600 249.644,289.600 249.200 C 289.600 248.756,289.333 248.400,289.000 248.400 C 288.600 248.400,288.400 248.000,288.400 247.200 C 288.400 246.400,288.200 246.000,287.800 246.000 C 287.400 246.000,287.200 245.600,287.200 244.800 C 287.200 244.000,287.000 243.600,286.600 243.600 C 286.225 243.600,286.000 243.221,286.000 242.587 C 286.000 242.031,285.730 241.471,285.400 241.345 C 285.070 241.218,284.800 240.864,284.800 240.557 C 284.800 240.251,284.530 240.000,284.200 240.000 C 283.781 240.000,283.600 239.578,283.600 238.600 C 283.600 237.657,283.415 237.200,283.032 237.200 C 282.719 237.200,282.345 236.660,282.200 236.000 C 282.055 235.340,281.681 234.800,281.368 234.800 C 281.004 234.800,280.800 234.370,280.800 233.600 C 280.800 232.800,280.600 232.400,280.200 232.400 C 279.870 232.400,279.600 232.130,279.600 231.800 C 279.600 231.470,279.330 231.200,279.000 231.200 C 278.581 231.200,278.400 230.778,278.400 229.800 C 278.400 228.822,278.219 228.400,277.800 228.400 C 277.425 228.400,277.200 228.021,277.200 227.387 C 277.200 226.831,276.930 226.271,276.600 226.145 C 276.270 226.018,276.000 225.478,276.000 224.945 C 276.000 224.411,275.730 223.871,275.400 223.745 C 275.070 223.618,274.800 223.264,274.800 222.957 C 274.800 222.651,274.530 222.400,274.200 222.400 C 273.800 222.400,273.600 222.000,273.600 221.200 C 273.600 220.400,273.400 220.000,273.000 220.000 C 272.670 220.000,272.400 219.653,272.400 219.229 C 272.400 218.804,272.165 218.219,271.878 217.929 C 271.590 217.638,271.236 217.085,271.090 216.700 C 270.944 216.315,270.549 216.000,270.213 216.000 C 269.799 216.000,269.600 215.611,269.600 214.800 C 269.600 214.000,269.400 213.600,269.000 213.600 C 268.600 213.600,268.400 213.200,268.400 212.400 C 268.400 211.600,268.200 211.200,267.800 211.200 C 267.400 211.200,267.200 210.800,267.200 210.000 C 267.200 209.200,267.000 208.800,266.600 208.800 C 266.270 208.800,266.000 208.530,266.000 208.200 C 266.000 207.870,265.730 207.600,265.400 207.600 C 264.999 207.600,264.800 207.199,264.800 206.387 C 264.800 205.679,264.551 205.079,264.200 204.945 C 263.870 204.818,263.600 204.278,263.600 203.745 C 263.600 203.211,263.330 202.671,263.000 202.545 C 262.670 202.418,262.400 201.890,262.400 201.371 C 262.400 200.833,262.052 200.242,261.589 199.994 C 261.143 199.755,260.883 199.389,261.012 199.180 C 261.142 198.971,260.967 198.800,260.624 198.800 C 260.197 198.800,260.000 198.420,260.000 197.600 C 260.000 196.667,259.822 196.400,259.200 196.400 C 258.576 196.400,258.400 196.133,258.400 195.187 C 258.400 194.479,258.151 193.879,257.800 193.745 C 257.470 193.618,257.200 193.078,257.200 192.545 C 257.200 192.011,256.930 191.471,256.600 191.345 C 256.270 191.218,256.000 190.864,256.000 190.557 C 256.000 190.251,255.730 190.000,255.400 190.000 C 255.000 190.000,254.800 189.600,254.800 188.800 C 254.800 188.000,254.600 187.600,254.200 187.600 C 253.800 187.600,253.600 187.200,253.600 186.400 C 253.600 185.600,253.400 185.200,253.000 185.200 C 252.635 185.200,252.400 184.828,252.400 184.249 C 252.400 183.726,252.130 183.074,251.800 182.800 C 251.470 182.526,251.200 182.054,251.200 181.751 C 251.200 181.448,250.930 181.200,250.600 181.200 C 250.221 181.200,250.000 180.818,250.000 180.163 C 250.000 179.462,249.741 179.057,249.200 178.916 C 248.633 178.768,248.400 178.370,248.400 177.553 C 248.400 176.795,248.195 176.400,247.800 176.400 C 247.400 176.400,247.200 176.000,247.200 175.200 C 247.200 174.400,247.000 174.000,246.600 174.000 C 246.267 174.000,246.000 173.644,246.000 173.200 C 246.000 172.756,245.733 172.400,245.400 172.400 C 245.000 172.400,244.800 172.000,244.800 171.200 C 244.800 170.400,244.600 170.000,244.200 170.000 C 243.825 170.000,243.600 169.621,243.600 168.987 C 243.600 168.431,243.330 167.871,243.000 167.745 C 242.670 167.618,242.400 167.078,242.400 166.545 C 242.400 166.011,242.130 165.471,241.800 165.345 C 241.470 165.218,241.200 164.864,241.200 164.557 C 241.200 164.251,240.930 164.000,240.600 164.000 C 240.199 164.000,240.000 163.599,240.000 162.787 C 240.000 162.105,239.750 161.479,239.428 161.355 C 239.113 161.235,238.673 160.610,238.449 159.968 C 238.225 159.326,237.852 158.800,237.621 158.800 C 237.389 158.800,237.200 158.530,237.200 158.200 C 237.200 157.870,236.930 157.600,236.600 157.600 C 236.200 157.600,236.000 157.200,236.000 156.400 C 236.000 155.600,235.800 155.200,235.400 155.200 C 235.000 155.200,234.800 154.800,234.800 154.000 C 234.800 153.200,234.600 152.800,234.200 152.800 C 233.800 152.800,233.600 152.400,233.600 151.600 C 233.600 150.800,233.400 150.400,233.000 150.400 C 232.667 150.400,232.400 150.044,232.400 149.600 C 232.400 149.156,232.133 148.800,231.800 148.800 C 231.400 148.800,231.200 148.400,231.200 147.600 C 231.200 146.800,231.000 146.400,230.600 146.400 C 230.200 146.400,230.000 146.000,230.000 145.200 C 230.000 144.400,229.800 144.000,229.400 144.000 C 229.070 144.000,228.800 143.653,228.800 143.229 C 228.800 142.804,228.565 142.219,228.278 141.929 C 227.990 141.638,227.636 141.085,227.490 140.700 C 227.344 140.315,226.949 140.000,226.613 140.000 C 226.199 140.000,226.000 139.611,226.000 138.800 C 226.000 138.000,225.800 137.600,225.400 137.600 C 225.000 137.600,224.800 137.200,224.800 136.400 C 224.800 135.600,224.600 135.200,224.200 135.200 C 223.800 135.200,223.600 134.800,223.600 134.000 C 223.600 133.200,223.400 132.800,223.000 132.800 C 222.670 132.800,222.400 132.530,222.400 132.200 C 222.400 131.870,222.130 131.600,221.800 131.600 C 221.399 131.600,221.200 131.199,221.200 130.387 C 221.200 129.679,220.951 129.079,220.600 128.945 C 220.270 128.818,220.000 128.278,220.000 127.745 C 220.000 127.211,219.730 126.671,219.400 126.545 C 219.070 126.418,218.800 125.878,218.800 125.345 C 218.800 124.811,218.530 124.271,218.200 124.145 C 217.870 124.018,217.600 123.664,217.600 123.357 C 217.600 123.051,217.240 122.800,216.800 122.800 C 216.178 122.800,216.000 122.533,216.000 121.600 C 216.000 120.800,215.800 120.400,215.400 120.400 C 214.999 120.400,214.800 119.999,214.800 119.187 C 214.800 118.479,214.551 117.879,214.200 117.745 C 213.870 117.618,213.600 117.120,213.600 116.638 C 213.600 116.156,213.069 115.322,212.417 114.781 C 211.645 114.141,211.228 113.417,211.217 112.700 C 211.206 111.996,210.984 111.600,210.600 111.600 C 210.225 111.600,210.000 111.221,210.000 110.587 C 210.000 110.031,209.730 109.471,209.400 109.345 C 209.070 109.218,208.800 108.678,208.800 108.145 C 208.800 107.611,208.530 107.071,208.200 106.945 C 207.870 106.818,207.600 106.458,207.600 106.145 C 207.600 105.831,207.330 105.471,207.000 105.345 C 206.670 105.218,206.400 104.667,206.400 104.120 C 206.400 103.462,206.129 103.054,205.600 102.916 C 205.033 102.768,204.800 102.370,204.800 101.553 C 204.800 100.795,204.595 100.400,204.200 100.400 C 203.870 100.400,203.600 100.130,203.600 99.800 C 203.600 99.470,203.330 99.200,203.000 99.200 C 202.581 99.200,202.400 98.778,202.400 97.800 C 202.400 96.822,202.219 96.400,201.800 96.400 C 201.400 96.400,201.200 96.000,201.200 95.200 C 201.200 94.400,201.000 94.000,200.600 94.000 C 200.225 94.000,200.000 93.621,200.000 92.987 C 200.000 92.431,199.730 91.871,199.400 91.745 C 199.070 91.618,198.800 91.264,198.800 90.957 C 198.800 90.651,198.530 90.400,198.200 90.400 C 197.800 90.400,197.600 90.000,197.600 89.200 C 197.600 88.400,197.400 88.000,197.000 88.000 C 196.631 88.000,196.400 87.625,196.400 87.024 C 196.400 86.487,196.217 85.934,195.994 85.796 C 195.771 85.658,195.330 84.928,195.014 84.173 C 194.699 83.418,194.252 82.800,194.020 82.800 C 193.789 82.800,193.600 82.530,193.600 82.200 C 193.600 81.870,193.330 81.600,193.000 81.600 C 192.600 81.600,192.400 81.200,192.400 80.400 C 192.400 79.600,192.200 79.200,191.800 79.200 C 191.400 79.200,191.200 78.800,191.200 78.000 C 191.200 77.200,191.000 76.800,190.600 76.800 C 190.200 76.800,190.000 76.400,190.000 75.600 C 190.000 74.800,189.800 74.400,189.400 74.400 C 189.067 74.400,188.800 74.044,188.800 73.600 C 188.800 73.156,188.533 72.800,188.200 72.800 C 187.800 72.800,187.600 72.400,187.600 71.600 C 187.600 70.800,187.400 70.400,187.000 70.400 C 186.600 70.400,186.400 70.000,186.400 69.200 C 186.400 68.430,186.196 68.000,185.832 68.000 C 185.519 68.000,185.145 67.460,185.000 66.800 C 184.855 66.140,184.571 65.600,184.368 65.600 C 184.166 65.600,184.000 65.330,184.000 65.000 C 184.000 64.667,183.644 64.400,183.200 64.400 C 182.552 64.400,182.400 64.133,182.400 63.000 C 182.400 62.022,182.219 61.600,181.800 61.600 C 181.400 61.600,181.200 61.200,181.200 60.400 C 181.200 59.600,181.000 59.200,180.600 59.200 C 180.200 59.200,180.000 58.800,180.000 58.000 C 180.000 57.340,179.820 56.800,179.600 56.800 C 178.835 56.800,177.600 55.194,177.600 54.200 C 177.600 53.578,177.373 53.200,177.000 53.200 C 176.635 53.200,176.400 52.828,176.400 52.249 C 176.400 51.726,176.130 51.074,175.800 50.800 C 175.470 50.526,175.197 49.919,175.193 49.451 C 175.186 48.568,173.619 46.800,172.844 46.800 C 172.600 46.800,172.400 46.260,172.400 45.600 C 172.400 44.800,172.200 44.400,171.800 44.400 C 171.400 44.400,171.200 44.000,171.200 43.200 C 171.200 42.400,171.000 42.000,170.600 42.000 C 170.267 42.000,170.000 41.644,170.000 41.200 C 170.000 40.756,169.733 40.400,169.400 40.400 C 169.000 40.400,168.800 40.000,168.800 39.200 C 168.800 38.400,168.600 38.000,168.200 38.000 C 167.800 38.000,167.600 37.600,167.600 36.800 C 167.600 36.000,167.400 35.600,167.000 35.600 C 166.625 35.600,166.400 35.221,166.400 34.587 C 166.400 34.031,166.130 33.471,165.800 33.345 C 165.470 33.218,165.200 32.864,165.200 32.557 C 165.200 32.251,164.930 32.000,164.600 32.000 C 164.199 32.000,164.000 31.599,164.000 30.787 C 164.000 30.079,163.751 29.479,163.400 29.345 C 163.070 29.218,162.800 28.667,162.800 28.120 C 162.800 27.462,162.529 27.054,162.000 26.916 C 161.433 26.768,161.200 26.370,161.200 25.553 C 161.200 24.795,160.995 24.400,160.600 24.400 C 160.270 24.400,160.000 24.130,160.000 23.800 C 160.000 23.470,159.730 23.200,159.400 23.200 C 159.000 23.200,158.800 22.800,158.800 22.000 C 158.800 21.200,158.600 20.800,158.200 20.800 C 157.799 20.800,157.600 20.399,157.600 19.587 C 157.600 18.879,157.351 18.279,157.000 18.145 C 156.670 18.018,156.400 17.478,156.400 16.945 C 156.400 16.411,156.130 15.871,155.800 15.745 C 155.470 15.618,155.200 15.264,155.200 14.957 C 155.200 14.651,154.930 14.400,154.600 14.400 C 154.200 14.400,154.000 14.000,154.000 13.200 C 154.000 12.400,153.800 12.000,153.400 12.000 C 153.025 12.000,152.800 11.621,152.800 10.987 C 152.800 10.431,152.530 9.871,152.200 9.745 C 151.870 9.618,151.600 9.172,151.600 8.753 C 151.600 8.335,151.240 7.684,150.800 7.307 C 150.360 6.930,150.000 6.392,150.000 6.111 C 150.000 5.830,149.730 5.600,149.400 5.600 C 149.000 5.600,148.800 5.200,148.800 4.400 C 148.800 3.600,148.600 3.200,148.200 3.200 C 147.800 3.200,147.600 2.800,147.600 2.000 C 147.600 1.200,147.400 0.800,147.000 0.800 C 146.670 0.800,146.400 0.620,146.400 0.400 C 146.400 0.180,145.860 0.000,145.200 0.000 C 144.187 0.000,144.000 0.156,144.000 1.000 " stroke="none" fill="#fc8c8c" fill-rule="evenodd"></path><path id="path1" d="M58.145 310.200 C 57.976 310.639,57.284 310.800,55.557 310.800 C 53.729 310.800,53.200 310.935,53.200 311.400 C 53.200 311.867,52.665 312.000,50.787 312.000 C 49.012 312.000,48.314 312.158,48.145 312.600 C 48.013 312.942,47.417 313.200,46.757 313.200 C 45.995 313.200,45.600 313.405,45.600 313.800 C 45.600 314.234,45.154 314.400,43.987 314.400 C 42.923 314.400,42.297 314.604,42.145 315.000 C 42.018 315.330,41.485 315.600,40.961 315.600 C 40.436 315.600,39.782 315.960,39.507 316.400 C 39.204 316.886,38.574 317.200,37.904 317.200 C 37.189 317.200,36.800 317.412,36.800 317.800 C 36.800 318.200,36.400 318.400,35.600 318.400 C 34.800 318.400,34.400 318.600,34.400 319.000 C 34.400 319.330,34.130 319.600,33.800 319.600 C 33.470 319.600,33.200 319.870,33.200 320.200 C 33.200 320.600,32.800 320.800,32.000 320.800 C 31.200 320.800,30.800 321.000,30.800 321.400 C 30.800 321.733,30.444 322.000,30.000 322.000 C 29.556 322.000,29.200 322.267,29.200 322.600 C 29.200 322.949,28.837 323.200,28.331 323.200 C 27.824 323.200,26.745 323.949,25.738 325.000 C 24.790 325.990,23.830 326.800,23.607 326.800 C 23.383 326.800,23.200 327.160,23.200 327.600 C 23.200 328.044,22.933 328.400,22.600 328.400 C 22.270 328.400,22.000 328.670,22.000 329.000 C 22.000 329.330,21.730 329.600,21.400 329.600 C 21.070 329.600,20.800 329.870,20.800 330.200 C 20.800 330.530,20.567 330.800,20.281 330.800 C 19.996 330.800,19.321 331.332,18.781 331.983 C 18.242 332.634,17.575 333.174,17.300 333.183 C 17.025 333.192,16.800 333.470,16.800 333.800 C 16.800 334.130,16.530 334.400,16.200 334.400 C 15.870 334.400,15.600 334.651,15.600 334.957 C 15.600 335.264,15.330 335.618,15.000 335.745 C 14.670 335.871,14.400 336.251,14.400 336.587 C 14.400 336.924,14.130 337.200,13.800 337.200 C 13.400 337.200,13.200 337.600,13.200 338.400 C 13.200 339.200,13.000 339.600,12.600 339.600 C 12.270 339.600,12.000 339.870,12.000 340.200 C 12.000 340.530,11.730 340.800,11.400 340.800 C 11.000 340.800,10.800 341.200,10.800 342.000 C 10.800 342.800,10.600 343.200,10.200 343.200 C 9.870 343.200,9.600 343.470,9.600 343.800 C 9.600 344.130,9.350 344.400,9.043 344.400 C 8.737 344.400,8.368 344.872,8.224 345.448 C 8.079 346.025,7.699 346.758,7.380 347.077 C 7.061 347.396,6.800 348.010,6.800 348.441 C 6.800 348.872,6.530 349.329,6.200 349.455 C 5.858 349.587,5.600 350.183,5.600 350.843 C 5.600 351.605,5.395 352.000,5.000 352.000 C 4.556 352.000,4.400 352.467,4.400 353.800 C 4.400 355.133,4.244 355.600,3.800 355.600 C 3.356 355.600,3.200 356.067,3.200 357.400 C 3.200 358.733,3.044 359.200,2.600 359.200 C 2.147 359.200,2.000 359.689,2.000 361.200 C 2.000 362.711,1.853 363.200,1.400 363.200 C 0.933 363.200,0.800 363.733,0.800 365.600 C 0.800 366.933,0.622 368.000,0.400 368.000 C 0.141 368.000,0.000 373.067,0.000 382.400 C 0.000 391.733,0.141 396.800,0.400 396.800 C 0.622 396.800,0.800 397.867,0.800 399.200 C 0.800 401.067,0.933 401.600,1.400 401.600 C 1.867 401.600,2.000 402.133,2.000 404.000 C 2.000 405.867,2.133 406.400,2.600 406.400 C 3.019 406.400,3.200 406.822,3.200 407.800 C 3.200 408.778,3.381 409.200,3.800 409.200 C 4.234 409.200,4.400 409.646,4.400 410.813 C 4.400 411.877,4.604 412.503,5.000 412.655 C 5.342 412.787,5.600 413.383,5.600 414.043 C 5.600 414.805,5.805 415.200,6.200 415.200 C 6.569 415.200,6.800 415.575,6.800 416.176 C 6.800 416.713,6.983 417.266,7.206 417.404 C 7.429 417.542,7.870 418.272,8.186 419.027 C 8.501 419.782,8.948 420.400,9.180 420.400 C 9.411 420.400,9.600 420.670,9.600 421.000 C 9.600 421.330,9.870 421.600,10.200 421.600 C 10.600 421.600,10.800 422.000,10.800 422.800 C 10.800 423.600,11.000 424.000,11.400 424.000 C 11.730 424.000,12.000 424.270,12.000 424.600 C 12.000 424.930,12.270 425.200,12.600 425.200 C 13.000 425.200,13.200 425.600,13.200 426.400 C 13.200 427.200,13.400 427.600,13.800 427.600 C 14.130 427.600,14.400 427.833,14.400 428.119 C 14.400 428.404,14.932 429.079,15.583 429.619 C 16.234 430.158,16.774 430.825,16.783 431.100 C 16.792 431.375,17.070 431.600,17.400 431.600 C 17.730 431.600,18.000 431.870,18.000 432.200 C 18.000 432.530,18.270 432.800,18.600 432.800 C 18.930 432.800,19.200 433.070,19.200 433.400 C 19.200 433.733,19.556 434.000,20.000 434.000 C 20.444 434.000,20.800 434.267,20.800 434.600 C 20.800 434.930,21.070 435.200,21.400 435.200 C 21.730 435.200,22.000 435.470,22.000 435.800 C 22.000 436.130,22.270 436.400,22.600 436.400 C 22.930 436.400,23.200 436.670,23.200 437.000 C 23.200 437.330,23.470 437.600,23.800 437.600 C 24.130 437.600,24.400 437.870,24.400 438.200 C 24.400 438.530,24.649 438.800,24.953 438.800 C 25.258 438.800,25.589 439.116,25.691 439.503 C 25.792 439.890,26.578 440.565,27.437 441.003 C 28.297 441.441,29.144 442.025,29.320 442.300 C 29.496 442.575,29.901 442.800,30.220 442.800 C 30.539 442.800,30.800 443.070,30.800 443.400 C 30.800 443.800,31.200 444.000,32.000 444.000 C 32.800 444.000,33.200 444.200,33.200 444.600 C 33.200 444.930,33.470 445.200,33.800 445.200 C 34.130 445.200,34.400 445.470,34.400 445.800 C 34.400 446.200,34.800 446.400,35.600 446.400 C 36.400 446.400,36.800 446.600,36.800 447.000 C 36.800 447.395,37.195 447.600,37.957 447.600 C 38.617 447.600,39.213 447.858,39.345 448.200 C 39.479 448.551,40.079 448.800,40.787 448.800 C 41.599 448.800,42.000 448.999,42.000 449.400 C 42.000 449.844,42.467 450.000,43.800 450.000 C 45.333 450.000,45.600 450.119,45.600 450.800 C 45.600 451.479,45.867 451.600,47.357 451.600 C 48.550 451.600,49.188 451.793,49.345 452.200 C 49.502 452.611,50.145 452.800,51.387 452.800 C 52.732 452.800,53.200 452.955,53.200 453.400 C 53.200 453.865,53.729 454.000,55.557 454.000 C 57.284 454.000,57.976 454.161,58.145 454.600 C 58.343 455.118,60.301 455.200,72.387 455.200 C 84.576 455.200,86.400 455.122,86.400 454.600 C 86.400 454.128,86.956 454.000,89.000 454.000 C 91.044 454.000,91.600 453.872,91.600 453.400 C 91.600 452.948,92.086 452.800,93.571 452.800 C 94.790 452.800,95.772 452.571,96.143 452.200 C 96.473 451.870,97.223 451.600,97.809 451.600 C 98.538 451.600,98.941 451.348,99.084 450.800 C 99.248 450.172,99.630 450.000,100.859 450.000 C 101.882 450.000,102.505 449.792,102.655 449.400 C 102.787 449.058,103.383 448.800,104.043 448.800 C 104.805 448.800,105.200 448.595,105.200 448.200 C 105.200 447.800,105.600 447.600,106.400 447.600 C 107.200 447.600,107.600 447.400,107.600 447.000 C 107.600 446.599,108.001 446.400,108.813 446.400 C 109.521 446.400,110.121 446.151,110.255 445.800 C 110.382 445.470,110.736 445.200,111.043 445.200 C 111.349 445.200,111.600 444.930,111.600 444.600 C 111.600 444.200,112.000 444.000,112.800 444.000 C 113.600 444.000,114.000 443.800,114.000 443.400 C 114.000 443.070,114.270 442.800,114.600 442.800 C 114.930 442.800,115.200 442.550,115.200 442.243 C 115.200 441.937,115.688 441.564,116.284 441.415 C 116.880 441.265,117.872 440.615,118.488 439.971 C 119.103 439.327,119.785 438.800,120.003 438.800 C 120.222 438.800,120.400 438.530,120.400 438.200 C 120.400 437.870,120.670 437.600,121.000 437.600 C 121.330 437.600,121.600 437.330,121.600 437.000 C 121.600 436.670,121.870 436.400,122.200 436.400 C 122.530 436.400,122.800 436.130,122.800 435.800 C 122.800 435.470,123.070 435.200,123.400 435.200 C 123.730 435.200,124.000 434.930,124.000 434.600 C 124.000 434.270,124.270 434.000,124.600 434.000 C 124.930 434.000,125.200 433.730,125.200 433.400 C 125.200 433.070,125.470 432.800,125.800 432.800 C 126.130 432.800,126.400 432.530,126.400 432.200 C 126.400 431.870,126.670 431.600,127.000 431.600 C 127.330 431.600,127.600 431.330,127.600 431.000 C 127.600 430.670,127.870 430.400,128.200 430.400 C 128.530 430.400,128.800 430.235,128.800 430.034 C 128.800 429.833,129.430 429.020,130.200 428.227 C 130.970 427.434,131.600 426.429,131.600 425.993 C 131.600 425.555,131.869 425.200,132.200 425.200 C 132.530 425.200,132.800 424.930,132.800 424.600 C 132.800 424.270,133.070 424.000,133.400 424.000 C 133.800 424.000,134.000 423.600,134.000 422.800 C 134.000 422.000,134.200 421.600,134.600 421.600 C 134.930 421.600,135.200 421.349,135.200 421.043 C 135.200 420.736,135.470 420.382,135.800 420.255 C 136.130 420.129,136.400 419.589,136.400 419.055 C 136.400 418.522,136.670 417.982,137.000 417.855 C 137.351 417.721,137.600 417.121,137.600 416.413 C 137.600 415.601,137.799 415.200,138.200 415.200 C 138.600 415.200,138.800 414.800,138.800 414.000 C 138.800 413.200,139.000 412.800,139.400 412.800 C 139.842 412.800,140.000 412.339,140.000 411.047 C 140.000 409.630,140.153 409.253,140.800 409.084 C 141.454 408.913,141.600 408.538,141.600 407.037 C 141.600 405.671,141.754 405.200,142.200 405.200 C 142.644 405.200,142.800 404.733,142.800 403.400 C 142.800 402.067,142.956 401.600,143.400 401.600 C 143.872 401.600,144.000 401.044,144.000 399.000 C 144.000 396.956,144.128 396.400,144.600 396.400 C 145.122 396.400,145.200 394.576,145.200 382.387 C 145.200 370.301,145.118 368.343,144.600 368.145 C 144.161 367.976,144.000 367.284,144.000 365.557 C 144.000 363.729,143.865 363.200,143.400 363.200 C 142.941 363.200,142.800 362.694,142.800 361.049 C 142.800 359.625,142.597 358.730,142.200 358.400 C 141.870 358.126,141.600 357.457,141.600 356.914 C 141.600 356.262,141.328 355.854,140.800 355.716 C 140.153 355.547,140.000 355.170,140.000 353.753 C 140.000 352.461,139.842 352.000,139.400 352.000 C 138.999 352.000,138.800 351.599,138.800 350.787 C 138.800 350.079,138.551 349.479,138.200 349.345 C 137.858 349.213,137.600 348.617,137.600 347.957 C 137.600 347.195,137.395 346.800,137.000 346.800 C 136.625 346.800,136.400 346.421,136.400 345.787 C 136.400 345.231,136.130 344.671,135.800 344.545 C 135.470 344.418,135.200 344.064,135.200 343.757 C 135.200 343.451,134.930 343.200,134.600 343.200 C 134.200 343.200,134.000 342.800,134.000 342.000 C 134.000 341.200,133.800 340.800,133.400 340.800 C 133.070 340.800,132.800 340.530,132.800 340.200 C 132.800 339.870,132.530 339.600,132.200 339.600 C 131.870 339.600,131.600 339.268,131.600 338.861 C 131.600 338.455,131.240 337.707,130.800 337.200 C 130.360 336.693,130.000 336.125,130.000 335.939 C 130.000 335.752,129.730 335.600,129.400 335.600 C 129.070 335.600,128.800 335.330,128.800 335.000 C 128.800 334.670,128.530 334.400,128.200 334.400 C 127.870 334.400,127.600 334.130,127.600 333.800 C 127.600 333.470,127.330 333.200,127.000 333.200 C 126.670 333.200,126.400 332.930,126.400 332.600 C 126.400 332.270,126.130 332.000,125.800 332.000 C 125.470 332.000,125.200 331.730,125.200 331.400 C 125.200 331.070,124.930 330.800,124.600 330.800 C 124.270 330.800,124.000 330.530,124.000 330.200 C 124.000 329.870,123.730 329.600,123.400 329.600 C 123.070 329.600,122.800 329.330,122.800 329.000 C 122.800 328.670,122.530 328.400,122.200 328.400 C 121.870 328.400,121.600 328.192,121.600 327.938 C 121.600 327.417,118.552 324.400,118.026 324.400 C 117.839 324.400,117.582 324.130,117.455 323.800 C 117.329 323.470,116.769 323.200,116.213 323.200 C 115.579 323.200,115.200 322.975,115.200 322.600 C 115.200 322.270,114.930 322.000,114.600 322.000 C 114.270 322.000,114.000 321.730,114.000 321.400 C 114.000 321.000,113.600 320.800,112.800 320.800 C 112.000 320.800,111.600 320.600,111.600 320.200 C 111.600 319.870,111.349 319.600,111.043 319.600 C 110.736 319.600,110.382 319.330,110.255 319.000 C 110.121 318.649,109.521 318.400,108.813 318.400 C 108.001 318.400,107.600 318.201,107.600 317.800 C 107.600 317.405,107.205 317.200,106.447 317.200 C 105.630 317.200,105.232 316.967,105.084 316.400 C 104.946 315.871,104.538 315.600,103.880 315.600 C 103.333 315.600,102.782 315.330,102.655 315.000 C 102.505 314.608,101.882 314.400,100.855 314.400 C 99.829 314.400,99.206 314.192,99.055 313.800 C 98.898 313.389,98.255 313.200,97.013 313.200 C 95.668 313.200,95.200 313.045,95.200 312.600 C 95.200 312.156,94.733 312.000,93.400 312.000 C 92.067 312.000,91.600 311.844,91.600 311.400 C 91.600 310.928,91.044 310.800,89.000 310.800 C 86.956 310.800,86.400 310.672,86.400 310.200 C 86.400 309.678,84.576 309.600,72.387 309.600 C 60.301 309.600,58.343 309.682,58.145 310.200 " stroke="none" fill="#7cbcbb" fill-rule="evenodd"></path><path id="path2" d="" stroke="none" fill="#100a4a4" fill-rule="evenodd"></path><path id="path3" d="" stroke="none" fill="#100a4a4" fill-rule="evenodd"></path><path id="path4" d="" stroke="none" fill="#100a4a4" fill-rule="evenodd"></path></g></svg>