<?xml version="1.0" encoding="UTF-8"?>
<svg xmlns="http://www.w3.org/2000/svg" xmlns:xlink="http://www.w3.org/1999/xlink" width="113pt" height="142pt" viewBox="0 0 113 142" version="1.1">
<g id="surface1">
<path style=" stroke:none;fill-rule:evenodd;fill:rgb(98.823529%,54.901961%,54.901961%);fill-opacity:1;" d="M 40.679688 0.28125 C 40.679688 0.457031 40.617188 0.5625 40.511719 0.5625 C 40.386719 0.5625 40.339844 0.691406 40.339844 1.066406 C 40.339844 1.441406 40.296875 1.570312 40.171875 1.570312 C 40.042969 1.570312 40.003906 1.707031 40.003906 2.132812 C 40.003906 2.558594 39.960938 2.695312 39.832031 2.695312 C 39.707031 2.695312 39.664062 2.824219 39.664062 3.199219 C 39.664062 3.574219 39.617188 3.703125 39.492188 3.703125 C 39.363281 3.703125 39.324219 3.851562 39.324219 4.363281 C 39.324219 4.929688 39.292969 5.035156 39.097656 5.082031 C 38.914062 5.132812 38.871094 5.238281 38.871094 5.660156 C 38.871094 6.03125 38.828125 6.175781 38.707031 6.175781 C 38.59375 6.175781 38.535156 6.332031 38.511719 6.707031 C 38.488281 7.058594 38.429688 7.230469 38.335938 7.210938 C 38.238281 7.191406 38.195312 7.34375 38.195312 7.675781 C 38.195312 8.011719 38.140625 8.191406 38.023438 8.234375 C 37.910156 8.277344 37.855469 8.460938 37.855469 8.808594 C 37.855469 9.1875 37.8125 9.316406 37.683594 9.316406 C 37.558594 9.316406 37.515625 9.449219 37.515625 9.820312 C 37.515625 10.195312 37.472656 10.328125 37.347656 10.328125 C 37.21875 10.328125 37.175781 10.464844 37.175781 10.886719 C 37.175781 11.3125 37.136719 11.449219 37.007812 11.449219 C 36.875 11.449219 36.839844 11.597656 36.839844 12.125 C 36.839844 12.648438 36.800781 12.796875 36.667969 12.796875 C 36.542969 12.796875 36.5 12.929688 36.5 13.300781 C 36.5 13.675781 36.453125 13.808594 36.328125 13.808594 C 36.203125 13.808594 36.160156 13.945312 36.160156 14.367188 C 36.160156 14.855469 36.128906 14.929688 35.933594 14.929688 C 35.742188 14.929688 35.707031 15.003906 35.707031 15.433594 C 35.707031 15.808594 35.664062 15.941406 35.539062 15.941406 C 35.414062 15.941406 35.367188 16.070312 35.367188 16.433594 C 35.367188 16.769531 35.316406 16.945312 35.199219 16.992188 C 35.082031 17.035156 35.03125 17.214844 35.03125 17.5625 C 35.03125 17.941406 34.984375 18.074219 34.859375 18.074219 C 34.734375 18.074219 34.691406 18.203125 34.691406 18.566406 C 34.691406 18.902344 34.636719 19.078125 34.523438 19.125 C 34.398438 19.171875 34.351562 19.359375 34.351562 19.808594 C 34.351562 20.285156 34.3125 20.429688 34.183594 20.429688 C 34.054688 20.429688 34.011719 20.566406 34.011719 20.992188 C 34.011719 21.414062 33.972656 21.550781 33.84375 21.550781 C 33.71875 21.550781 33.675781 21.683594 33.675781 22.058594 C 33.675781 22.433594 33.628906 22.5625 33.503906 22.5625 C 33.378906 22.5625 33.335938 22.691406 33.335938 23.054688 C 33.335938 23.453125 33.292969 23.558594 33.109375 23.605469 C 32.925781 23.652344 32.882812 23.757812 32.882812 24.167969 C 32.882812 24.511719 32.828125 24.691406 32.714844 24.738281 C 32.601562 24.777344 32.542969 24.953125 32.542969 25.242188 C 32.542969 25.53125 32.484375 25.703125 32.375 25.746094 C 32.265625 25.789062 32.203125 25.964844 32.203125 26.25 C 32.203125 26.539062 32.144531 26.714844 32.035156 26.757812 C 31.921875 26.800781 31.867188 26.980469 31.867188 27.316406 C 31.867188 27.65625 31.8125 27.835938 31.695312 27.878906 C 31.574219 27.925781 31.527344 28.117188 31.527344 28.566406 C 31.527344 29.042969 31.488281 29.1875 31.359375 29.1875 C 31.230469 29.1875 31.1875 29.316406 31.1875 29.691406 C 31.1875 30.066406 31.144531 30.195312 31.019531 30.195312 C 30.890625 30.195312 30.847656 30.332031 30.847656 30.757812 C 30.847656 31.179688 30.808594 31.320312 30.679688 31.320312 C 30.554688 31.320312 30.511719 31.449219 30.511719 31.824219 C 30.511719 32.199219 30.464844 32.328125 30.339844 32.328125 C 30.214844 32.328125 30.171875 32.464844 30.171875 32.875 C 30.171875 33.332031 30.132812 33.433594 29.945312 33.484375 C 29.765625 33.53125 29.71875 33.636719 29.71875 33.988281 C 29.71875 34.285156 29.660156 34.460938 29.550781 34.503906 C 29.4375 34.542969 29.378906 34.71875 29.378906 35.003906 C 29.378906 35.257812 29.308594 35.503906 29.210938 35.585938 C 29.097656 35.675781 29.039062 35.929688 29.039062 36.328125 C 29.039062 36.789062 29 36.929688 28.871094 36.929688 C 28.746094 36.929688 28.703125 37.0625 28.703125 37.4375 C 28.703125 37.808594 28.65625 37.941406 28.53125 37.941406 C 28.40625 37.941406 28.363281 38.074219 28.363281 38.445312 C 28.363281 38.820312 28.320312 38.953125 28.195312 38.953125 C 28.066406 38.953125 28.023438 39.089844 28.023438 39.511719 C 28.023438 39.9375 27.984375 40.074219 27.855469 40.074219 C 27.730469 40.074219 27.683594 40.207031 27.683594 40.578125 C 27.683594 40.953125 27.640625 41.085938 27.515625 41.085938 C 27.390625 41.085938 27.347656 41.214844 27.347656 41.578125 C 27.347656 41.914062 27.292969 42.089844 27.175781 42.136719 C 27.0625 42.179688 27.007812 42.359375 27.007812 42.695312 C 27.007812 43.097656 26.964844 43.203125 26.78125 43.25 C 26.601562 43.296875 26.554688 43.402344 26.554688 43.757812 C 26.554688 44.050781 26.496094 44.226562 26.386719 44.269531 C 26.160156 44.355469 26.15625 45.109375 26.378906 45.195312 C 26.46875 45.230469 26.574219 45.402344 26.613281 45.582031 C 26.652344 45.765625 26.757812 45.910156 26.847656 45.910156 C 26.933594 45.910156 27.007812 46.011719 27.007812 46.136719 C 27.007812 46.261719 27.082031 46.359375 27.175781 46.359375 C 27.289062 46.359375 27.347656 46.472656 27.347656 46.695312 C 27.347656 46.921875 27.402344 47.035156 27.515625 47.035156 C 27.628906 47.035156 27.683594 47.144531 27.683594 47.371094 C 27.683594 47.59375 27.742188 47.707031 27.855469 47.707031 C 27.96875 47.707031 28.023438 47.820312 28.023438 48.042969 C 28.023438 48.269531 28.082031 48.382812 28.195312 48.382812 C 28.285156 48.382812 28.363281 48.457031 28.363281 48.550781 C 28.363281 48.640625 28.4375 48.71875 28.53125 48.71875 C 28.644531 48.71875 28.703125 48.832031 28.703125 49.058594 C 28.703125 49.257812 28.773438 49.425781 28.871094 49.460938 C 28.964844 49.5 29.039062 49.648438 29.039062 49.800781 C 29.039062 49.949219 29.113281 50.101562 29.203125 50.132812 C 29.292969 50.167969 29.398438 50.339844 29.4375 50.515625 C 29.476562 50.6875 29.582031 50.859375 29.675781 50.898438 C 29.769531 50.933594 29.816406 51.011719 29.777344 51.074219 C 29.738281 51.136719 29.808594 51.1875 29.9375 51.1875 C 30.121094 51.1875 30.171875 51.257812 30.171875 51.523438 C 30.171875 51.75 30.226562 51.859375 30.339844 51.859375 C 30.453125 51.859375 30.511719 51.972656 30.511719 52.203125 C 30.511719 52.398438 30.582031 52.566406 30.679688 52.605469 C 30.773438 52.640625 30.847656 52.792969 30.847656 52.941406 C 30.847656 53.09375 30.925781 53.242188 31.019531 53.28125 C 31.113281 53.316406 31.1875 53.414062 31.1875 53.5 C 31.1875 53.585938 31.265625 53.65625 31.359375 53.65625 C 31.46875 53.65625 31.527344 53.769531 31.527344 53.992188 C 31.527344 54.21875 31.582031 54.332031 31.695312 54.332031 C 31.808594 54.332031 31.867188 54.441406 31.867188 54.667969 C 31.867188 54.890625 31.921875 55.003906 32.035156 55.003906 C 32.140625 55.003906 32.203125 55.109375 32.203125 55.289062 C 32.203125 55.445312 32.28125 55.601562 32.375 55.636719 C 32.46875 55.671875 32.542969 55.773438 32.542969 55.859375 C 32.542969 55.949219 32.621094 56.050781 32.714844 56.085938 C 32.808594 56.121094 32.882812 56.277344 32.882812 56.429688 C 32.882812 56.613281 32.960938 56.730469 33.109375 56.765625 C 33.269531 56.808594 33.335938 56.921875 33.335938 57.148438 C 33.335938 57.363281 33.394531 57.472656 33.503906 57.472656 C 33.617188 57.472656 33.675781 57.585938 33.675781 57.808594 C 33.675781 58.035156 33.730469 58.148438 33.84375 58.148438 C 33.9375 58.148438 34.011719 58.222656 34.011719 58.316406 C 34.011719 58.40625 34.089844 58.484375 34.183594 58.484375 C 34.300781 58.484375 34.351562 58.601562 34.351562 58.875 C 34.351562 59.152344 34.402344 59.269531 34.523438 59.269531 C 34.632812 59.269531 34.691406 59.382812 34.691406 59.605469 C 34.691406 59.832031 34.746094 59.941406 34.859375 59.941406 C 34.964844 59.941406 35.03125 60.050781 35.03125 60.226562 C 35.03125 60.382812 35.105469 60.539062 35.199219 60.574219 C 35.292969 60.613281 35.367188 60.761719 35.367188 60.914062 C 35.367188 61.0625 35.445312 61.214844 35.539062 61.25 C 35.632812 61.285156 35.707031 61.382812 35.707031 61.46875 C 35.707031 61.554688 35.808594 61.625 35.933594 61.625 C 36.117188 61.625 36.160156 61.703125 36.160156 62.019531 C 36.160156 62.292969 36.210938 62.414062 36.328125 62.414062 C 36.433594 62.414062 36.5 62.519531 36.5 62.695312 C 36.5 62.851562 36.574219 63.011719 36.667969 63.046875 C 36.765625 63.082031 36.839844 63.25 36.839844 63.433594 C 36.839844 63.648438 36.894531 63.757812 37.007812 63.757812 C 37.101562 63.757812 37.175781 63.835938 37.175781 63.929688 C 37.175781 64.019531 37.253906 64.097656 37.347656 64.097656 C 37.460938 64.097656 37.515625 64.207031 37.515625 64.4375 C 37.515625 64.636719 37.585938 64.804688 37.683594 64.839844 C 37.777344 64.878906 37.855469 65.027344 37.855469 65.179688 C 37.855469 65.328125 37.929688 65.480469 38.023438 65.515625 C 38.117188 65.550781 38.195312 65.703125 38.195312 65.851562 C 38.195312 66 38.269531 66.152344 38.363281 66.1875 C 38.457031 66.222656 38.53125 66.324219 38.53125 66.410156 C 38.53125 66.496094 38.609375 66.566406 38.703125 66.566406 C 38.816406 66.566406 38.871094 66.679688 38.871094 66.902344 C 38.871094 67.164062 38.921875 67.238281 39.097656 67.238281 C 39.273438 67.238281 39.324219 67.316406 39.324219 67.5625 C 39.324219 67.75 39.398438 67.917969 39.492188 67.953125 C 39.585938 67.988281 39.664062 68.148438 39.664062 68.304688 C 39.664062 68.464844 39.738281 68.621094 39.832031 68.65625 C 39.925781 68.695312 40.003906 68.792969 40.003906 68.878906 C 40.003906 68.964844 40.078125 69.035156 40.171875 69.035156 C 40.285156 69.035156 40.339844 69.148438 40.339844 69.371094 C 40.339844 69.597656 40.398438 69.710938 40.511719 69.710938 C 40.617188 69.710938 40.679688 69.816406 40.679688 69.992188 C 40.679688 70.148438 40.757812 70.304688 40.847656 70.34375 C 40.941406 70.378906 41.019531 70.523438 41.019531 70.667969 C 41.019531 70.8125 41.085938 70.972656 41.167969 71.023438 C 41.25 71.070312 41.351562 71.203125 41.394531 71.316406 C 41.433594 71.425781 41.519531 71.488281 41.582031 71.449219 C 41.648438 71.410156 41.695312 71.523438 41.695312 71.726562 C 41.695312 71.925781 41.765625 72.101562 41.859375 72.136719 C 41.949219 72.167969 42.054688 72.34375 42.09375 72.523438 C 42.132812 72.703125 42.238281 72.851562 42.328125 72.851562 C 42.429688 72.851562 42.488281 72.972656 42.488281 73.1875 C 42.488281 73.414062 42.542969 73.527344 42.65625 73.527344 C 42.75 73.527344 42.828125 73.601562 42.828125 73.695312 C 42.828125 73.785156 42.902344 73.863281 42.996094 73.863281 C 43.113281 73.863281 43.164062 73.980469 43.164062 74.253906 C 43.164062 74.53125 43.21875 74.648438 43.335938 74.648438 C 43.441406 74.648438 43.503906 74.753906 43.503906 74.933594 C 43.503906 75.089844 43.582031 75.246094 43.675781 75.28125 C 43.769531 75.316406 43.84375 75.46875 43.84375 75.617188 C 43.84375 75.769531 43.921875 75.917969 44.011719 75.953125 C 44.105469 75.988281 44.183594 76.089844 44.183594 76.175781 C 44.183594 76.261719 44.257812 76.332031 44.351562 76.332031 C 44.464844 76.332031 44.523438 76.445312 44.523438 76.667969 C 44.523438 76.894531 44.578125 77.003906 44.691406 77.003906 C 44.785156 77.003906 44.859375 77.105469 44.859375 77.230469 C 44.859375 77.355469 44.960938 77.554688 45.085938 77.679688 C 45.210938 77.800781 45.3125 78.03125 45.3125 78.183594 C 45.3125 78.359375 45.378906 78.464844 45.484375 78.464844 C 45.574219 78.464844 45.652344 78.539062 45.652344 78.632812 C 45.652344 78.726562 45.726562 78.800781 45.820312 78.800781 C 45.933594 78.800781 45.992188 78.914062 45.992188 79.136719 C 45.992188 79.363281 46.046875 79.476562 46.160156 79.476562 C 46.273438 79.476562 46.328125 79.585938 46.328125 79.816406 C 46.328125 80.015625 46.398438 80.183594 46.5 80.21875 C 46.59375 80.253906 46.667969 80.40625 46.667969 80.558594 C 46.667969 80.707031 46.746094 80.859375 46.839844 80.894531 C 46.933594 80.929688 47.007812 81.027344 47.007812 81.113281 C 47.007812 81.199219 47.085938 81.269531 47.175781 81.269531 C 47.289062 81.269531 47.347656 81.382812 47.347656 81.609375 C 47.347656 81.832031 47.402344 81.945312 47.515625 81.945312 C 47.621094 81.945312 47.6875 82.050781 47.6875 82.230469 C 47.6875 82.386719 47.761719 82.542969 47.855469 82.578125 C 47.949219 82.613281 48.023438 82.734375 48.023438 82.84375 C 48.023438 82.957031 48.203125 83.230469 48.421875 83.453125 C 48.65625 83.695312 48.816406 83.96875 48.816406 84.136719 C 48.816406 84.308594 48.878906 84.414062 48.984375 84.414062 C 49.097656 84.414062 49.15625 84.527344 49.15625 84.75 C 49.15625 84.976562 49.210938 85.085938 49.324219 85.085938 C 49.4375 85.085938 49.492188 85.199219 49.492188 85.425781 C 49.492188 85.648438 49.550781 85.761719 49.664062 85.761719 C 49.757812 85.761719 49.832031 85.835938 49.832031 85.929688 C 49.832031 86.023438 49.910156 86.097656 50.003906 86.097656 C 50.117188 86.097656 50.171875 86.210938 50.171875 86.4375 C 50.171875 86.636719 50.242188 86.804688 50.339844 86.84375 C 50.433594 86.878906 50.511719 87.03125 50.511719 87.179688 C 50.511719 87.328125 50.585938 87.480469 50.671875 87.515625 C 50.761719 87.546875 50.867188 87.722656 50.910156 87.902344 C 50.949219 88.082031 51.027344 88.230469 51.085938 88.230469 C 51.140625 88.230469 51.1875 88.304688 51.1875 88.398438 C 51.1875 88.492188 51.289062 88.566406 51.414062 88.566406 C 51.589844 88.566406 51.640625 88.640625 51.640625 88.90625 C 51.640625 89.128906 51.699219 89.242188 51.808594 89.242188 C 51.921875 89.242188 51.980469 89.355469 51.980469 89.582031 C 51.980469 89.78125 52.050781 89.949219 52.148438 89.984375 C 52.242188 90.023438 52.320312 90.171875 52.320312 90.324219 C 52.320312 90.472656 52.394531 90.625 52.488281 90.660156 C 52.582031 90.695312 52.65625 90.792969 52.65625 90.878906 C 52.65625 90.964844 52.734375 91.039062 52.828125 91.039062 C 52.941406 91.039062 52.996094 91.148438 52.996094 91.375 C 52.996094 91.597656 53.054688 91.710938 53.167969 91.710938 C 53.28125 91.710938 53.335938 91.824219 53.335938 92.046875 C 53.335938 92.273438 53.390625 92.382812 53.503906 92.382812 C 53.613281 92.382812 53.675781 92.492188 53.675781 92.667969 C 53.675781 92.824219 53.75 92.980469 53.84375 93.015625 C 53.9375 93.050781 54.015625 93.15625 54.015625 93.25 C 54.015625 93.339844 54.117188 93.441406 54.238281 93.472656 C 54.398438 93.515625 54.464844 93.628906 54.464844 93.855469 C 54.464844 94.070312 54.523438 94.179688 54.636719 94.179688 C 54.75 94.179688 54.804688 94.292969 54.804688 94.515625 C 54.804688 94.742188 54.863281 94.855469 54.972656 94.855469 C 55.085938 94.855469 55.144531 94.964844 55.144531 95.191406 C 55.144531 95.414062 55.199219 95.527344 55.3125 95.527344 C 55.40625 95.527344 55.484375 95.628906 55.484375 95.75 C 55.484375 95.875 55.546875 95.964844 55.625 95.949219 C 55.707031 95.929688 55.78125 96.066406 55.800781 96.285156 C 55.824219 96.511719 55.898438 96.648438 56 96.648438 C 56.105469 96.648438 56.160156 96.769531 56.160156 96.988281 C 56.160156 97.210938 56.21875 97.324219 56.332031 97.324219 C 56.4375 97.324219 56.5 97.429688 56.5 97.609375 C 56.5 97.761719 56.578125 97.921875 56.667969 97.957031 C 56.761719 97.992188 56.839844 98.089844 56.839844 98.175781 C 56.839844 98.261719 56.914062 98.332031 57.007812 98.332031 C 57.121094 98.332031 57.179688 98.445312 57.179688 98.679688 C 57.179688 98.933594 57.238281 99.042969 57.402344 99.085938 C 57.5625 99.128906 57.628906 99.238281 57.628906 99.46875 C 57.628906 99.683594 57.6875 99.792969 57.800781 99.792969 C 57.90625 99.792969 57.96875 99.898438 57.96875 100.078125 C 57.96875 100.234375 58.046875 100.390625 58.136719 100.425781 C 58.230469 100.460938 58.308594 100.5625 58.308594 100.648438 C 58.308594 100.734375 58.382812 100.804688 58.476562 100.804688 C 58.589844 100.804688 58.648438 100.914062 58.648438 101.140625 C 58.648438 101.363281 58.703125 101.476562 58.816406 101.476562 C 58.929688 101.476562 58.984375 101.589844 58.984375 101.816406 C 58.984375 102.015625 59.054688 102.183594 59.15625 102.222656 C 59.25 102.257812 59.324219 102.410156 59.324219 102.558594 C 59.324219 102.707031 59.402344 102.859375 59.496094 102.894531 C 59.585938 102.929688 59.664062 103.03125 59.664062 103.117188 C 59.664062 103.203125 59.742188 103.273438 59.832031 103.273438 C 59.945312 103.273438 60.003906 103.386719 60.003906 103.609375 C 60.003906 103.835938 60.058594 103.945312 60.171875 103.945312 C 60.28125 103.945312 60.34375 104.054688 60.34375 104.238281 C 60.34375 104.433594 60.414062 104.546875 60.566406 104.585938 C 60.726562 104.628906 60.792969 104.742188 60.792969 104.957031 C 60.792969 105.132812 60.871094 105.296875 60.964844 105.332031 C 61.058594 105.371094 61.132812 105.476562 61.132812 105.570312 C 61.132812 105.664062 61.210938 105.742188 61.300781 105.742188 C 61.414062 105.742188 61.472656 105.855469 61.472656 106.078125 C 61.472656 106.304688 61.527344 106.414062 61.640625 106.414062 C 61.753906 106.414062 61.8125 106.527344 61.8125 106.753906 C 61.8125 106.976562 61.867188 107.089844 61.980469 107.089844 C 62.085938 107.089844 62.148438 107.195312 62.148438 107.375 C 62.148438 107.53125 62.226562 107.6875 62.320312 107.722656 C 62.414062 107.757812 62.488281 107.859375 62.488281 107.945312 C 62.488281 108.035156 62.566406 108.136719 62.660156 108.171875 C 62.753906 108.207031 62.828125 108.375 62.828125 108.5625 C 62.828125 108.773438 62.886719 108.886719 62.996094 108.886719 C 63.164062 108.886719 63.214844 109.011719 63.171875 109.316406 C 63.164062 109.398438 63.257812 109.492188 63.386719 109.523438 C 63.554688 109.566406 63.617188 109.675781 63.617188 109.910156 C 63.617188 110.121094 63.675781 110.230469 63.789062 110.230469 C 63.882812 110.230469 63.957031 110.308594 63.957031 110.402344 C 63.957031 110.492188 64.035156 110.570312 64.128906 110.570312 C 64.246094 110.570312 64.296875 110.6875 64.296875 110.960938 C 64.296875 111.238281 64.347656 111.355469 64.464844 111.355469 C 64.578125 111.355469 64.636719 111.46875 64.636719 111.691406 C 64.636719 111.917969 64.691406 112.027344 64.804688 112.027344 C 64.910156 112.027344 64.976562 112.136719 64.976562 112.3125 C 64.976562 112.46875 65.050781 112.625 65.144531 112.660156 C 65.238281 112.695312 65.3125 112.796875 65.3125 112.882812 C 65.3125 112.96875 65.390625 113.039062 65.484375 113.039062 C 65.597656 113.039062 65.652344 113.152344 65.652344 113.375 C 65.652344 113.601562 65.710938 113.710938 65.824219 113.710938 C 65.925781 113.710938 65.992188 113.816406 65.992188 113.984375 C 65.992188 114.136719 66.042969 114.292969 66.105469 114.332031 C 66.167969 114.371094 66.292969 114.574219 66.382812 114.785156 C 66.472656 115 66.597656 115.171875 66.664062 115.171875 C 66.730469 115.171875 66.78125 115.246094 66.78125 115.339844 C 66.78125 115.433594 66.859375 115.507812 66.953125 115.507812 C 67.066406 115.507812 67.121094 115.621094 67.121094 115.84375 C 67.121094 116.070312 67.179688 116.183594 67.292969 116.183594 C 67.40625 116.183594 67.460938 116.292969 67.460938 116.519531 C 67.460938 116.742188 67.515625 116.855469 67.628906 116.855469 C 67.742188 116.855469 67.800781 116.96875 67.800781 117.191406 C 67.800781 117.417969 67.855469 117.527344 67.96875 117.527344 C 68.0625 117.527344 68.140625 117.628906 68.140625 117.753906 C 68.140625 117.878906 68.214844 117.976562 68.308594 117.976562 C 68.421875 117.976562 68.476562 118.089844 68.476562 118.316406 C 68.476562 118.539062 68.535156 118.652344 68.648438 118.652344 C 68.761719 118.652344 68.816406 118.761719 68.816406 118.988281 C 68.816406 119.210938 68.875 119.324219 68.988281 119.324219 C 69.078125 119.324219 69.15625 119.421875 69.15625 119.542969 C 69.15625 119.660156 69.222656 119.824219 69.304688 119.90625 C 69.386719 119.988281 69.484375 120.144531 69.527344 120.25 C 69.566406 120.359375 69.679688 120.449219 69.773438 120.449219 C 69.890625 120.449219 69.945312 120.554688 69.945312 120.785156 C 69.945312 121.007812 70.003906 121.121094 70.117188 121.121094 C 70.230469 121.121094 70.285156 121.234375 70.285156 121.457031 C 70.285156 121.683594 70.34375 121.792969 70.457031 121.792969 C 70.570312 121.792969 70.625 121.90625 70.625 122.132812 C 70.625 122.355469 70.679688 122.46875 70.792969 122.46875 C 70.886719 122.46875 70.964844 122.542969 70.964844 122.636719 C 70.964844 122.730469 71.039062 122.804688 71.132812 122.804688 C 71.246094 122.804688 71.304688 122.917969 71.304688 123.144531 C 71.304688 123.34375 71.375 123.511719 71.472656 123.550781 C 71.566406 123.585938 71.640625 123.738281 71.640625 123.886719 C 71.640625 124.035156 71.71875 124.1875 71.8125 124.222656 C 71.90625 124.257812 71.980469 124.359375 71.980469 124.445312 C 71.980469 124.578125 75.035156 124.601562 92.492188 124.601562 L 113 124.601562 L 113 124.265625 C 113 124.078125 112.949219 123.925781 112.886719 123.925781 C 112.824219 123.925781 112.773438 123.777344 112.773438 123.589844 C 112.773438 123.367188 112.71875 123.253906 112.605469 123.253906 C 112.492188 123.253906 112.433594 123.140625 112.433594 122.914062 C 112.433594 122.714844 112.363281 122.546875 112.265625 122.507812 C 112.171875 122.472656 112.097656 122.320312 112.097656 122.171875 C 112.097656 122.023438 112.019531 121.871094 111.925781 121.835938 C 111.832031 121.800781 111.757812 121.699219 111.757812 121.613281 C 111.757812 121.527344 111.679688 121.457031 111.585938 121.457031 C 111.472656 121.457031 111.417969 121.34375 111.417969 121.121094 C 111.417969 120.894531 111.363281 120.785156 111.25 120.785156 C 111.136719 120.785156 111.078125 120.671875 111.078125 120.449219 C 111.078125 120.222656 111.023438 120.109375 110.910156 120.109375 C 110.804688 120.109375 110.738281 120.003906 110.738281 119.828125 C 110.738281 119.671875 110.664062 119.511719 110.570312 119.476562 C 110.476562 119.441406 110.402344 119.339844 110.402344 119.253906 C 110.402344 119.164062 110.324219 119.0625 110.230469 119.027344 C 110.136719 118.992188 110.0625 118.839844 110.0625 118.683594 C 110.0625 118.5 109.984375 118.386719 109.835938 118.347656 C 109.675781 118.304688 109.609375 118.195312 109.609375 117.964844 C 109.609375 117.753906 109.550781 117.640625 109.441406 117.640625 C 109.328125 117.640625 109.269531 117.527344 109.269531 117.304688 C 109.269531 117.078125 109.214844 116.96875 109.101562 116.96875 C 109.007812 116.96875 108.933594 116.867188 108.933594 116.742188 C 108.933594 116.617188 108.855469 116.519531 108.761719 116.519531 C 108.648438 116.519531 108.59375 116.40625 108.59375 116.183594 C 108.59375 115.957031 108.535156 115.84375 108.421875 115.84375 C 108.316406 115.84375 108.253906 115.738281 108.253906 115.5625 C 108.253906 115.40625 108.175781 115.246094 108.085938 115.210938 C 107.992188 115.175781 107.914062 115.023438 107.914062 114.875 C 107.914062 114.726562 107.839844 114.574219 107.746094 114.539062 C 107.652344 114.503906 107.574219 114.402344 107.574219 114.316406 C 107.574219 114.230469 107.5 114.160156 107.40625 114.160156 C 107.292969 114.160156 107.238281 114.046875 107.238281 113.8125 C 107.238281 113.5625 107.175781 113.449219 107.011719 113.40625 C 106.863281 113.371094 106.785156 113.253906 106.785156 113.078125 C 106.785156 112.929688 106.707031 112.777344 106.617188 112.742188 C 106.523438 112.707031 106.445312 112.609375 106.445312 112.523438 C 106.445312 112.4375 106.371094 112.363281 106.277344 112.363281 C 106.164062 112.363281 106.105469 112.253906 106.105469 112.027344 C 106.105469 111.804688 106.050781 111.691406 105.9375 111.691406 C 105.824219 111.691406 105.769531 111.578125 105.769531 111.355469 C 105.769531 111.128906 105.710938 111.019531 105.597656 111.019531 C 105.484375 111.019531 105.429688 110.90625 105.429688 110.679688 C 105.429688 110.457031 105.371094 110.34375 105.257812 110.34375 C 105.164062 110.34375 105.089844 110.246094 105.089844 110.121094 C 105.089844 109.996094 105.015625 109.894531 104.921875 109.894531 C 104.808594 109.894531 104.75 109.785156 104.75 109.558594 C 104.75 109.335938 104.695312 109.222656 104.582031 109.222656 C 104.417969 109.222656 104.363281 109.097656 104.402344 108.800781 C 104.414062 108.722656 104.347656 108.628906 104.253906 108.59375 C 104.164062 108.558594 104.054688 108.382812 104.015625 108.203125 C 103.976562 108.023438 103.871094 107.875 103.78125 107.875 C 103.691406 107.875 103.621094 107.800781 103.621094 107.707031 C 103.621094 107.613281 103.542969 107.539062 103.453125 107.539062 C 103.332031 107.539062 103.28125 107.417969 103.28125 107.144531 C 103.28125 106.871094 103.230469 106.753906 103.113281 106.753906 C 103 106.753906 102.941406 106.640625 102.941406 106.414062 C 102.941406 106.191406 102.886719 106.078125 102.773438 106.078125 C 102.660156 106.078125 102.605469 105.96875 102.605469 105.742188 C 102.605469 105.519531 102.546875 105.40625 102.433594 105.40625 C 102.339844 105.40625 102.265625 105.328125 102.265625 105.238281 C 102.265625 105.144531 102.1875 105.070312 102.09375 105.070312 C 101.984375 105.070312 101.925781 104.957031 101.925781 104.730469 C 101.925781 104.507812 101.871094 104.394531 101.757812 104.394531 C 101.644531 104.394531 101.585938 104.28125 101.585938 104.054688 C 101.585938 103.863281 101.515625 103.6875 101.425781 103.652344 C 101.335938 103.617188 101.230469 103.441406 101.191406 103.261719 C 101.148438 103.082031 101.070312 102.9375 101.011719 102.9375 C 100.957031 102.9375 100.910156 102.859375 100.910156 102.769531 C 100.910156 102.675781 100.808594 102.597656 100.683594 102.597656 C 100.507812 102.597656 100.457031 102.523438 100.457031 102.261719 C 100.457031 102.039062 100.402344 101.925781 100.289062 101.925781 C 100.175781 101.925781 100.117188 101.8125 100.117188 101.585938 C 100.117188 101.386719 100.046875 101.21875 99.949219 101.179688 C 99.855469 101.144531 99.777344 100.992188 99.777344 100.84375 C 99.777344 100.695312 99.703125 100.542969 99.609375 100.507812 C 99.515625 100.472656 99.441406 100.371094 99.441406 100.285156 C 99.441406 100.199219 99.363281 100.128906 99.269531 100.128906 C 99.15625 100.128906 99.101562 100.015625 99.101562 99.792969 C 99.101562 99.570312 99.042969 99.457031 98.929688 99.457031 C 98.824219 99.457031 98.761719 99.351562 98.761719 99.171875 C 98.761719 99.015625 98.6875 98.859375 98.59375 98.824219 C 98.5 98.789062 98.421875 98.636719 98.421875 98.488281 C 98.421875 98.335938 98.347656 98.183594 98.253906 98.148438 C 98.160156 98.113281 98.085938 98.011719 98.085938 97.917969 C 98.085938 97.828125 97.980469 97.726562 97.859375 97.691406 C 97.699219 97.652344 97.632812 97.539062 97.632812 97.308594 C 97.632812 97.097656 97.574219 96.988281 97.460938 96.988281 C 97.347656 96.988281 97.292969 96.875 97.292969 96.648438 C 97.292969 96.425781 97.238281 96.3125 97.125 96.3125 C 97.03125 96.3125 96.953125 96.238281 96.953125 96.144531 C 96.953125 96.050781 96.878906 95.976562 96.785156 95.976562 C 96.671875 95.976562 96.613281 95.863281 96.613281 95.640625 C 96.613281 95.414062 96.558594 95.304688 96.445312 95.304688 C 96.332031 95.304688 96.277344 95.191406 96.277344 94.960938 C 96.277344 94.765625 96.207031 94.59375 96.105469 94.558594 C 96.011719 94.523438 95.9375 94.371094 95.9375 94.222656 C 95.9375 94.070312 95.859375 93.917969 95.765625 93.882812 C 95.675781 93.847656 95.597656 93.75 95.597656 93.664062 C 95.597656 93.578125 95.523438 93.507812 95.429688 93.507812 C 95.316406 93.507812 95.257812 93.394531 95.257812 93.171875 C 95.257812 92.945312 95.203125 92.832031 95.089844 92.832031 C 94.984375 92.832031 94.921875 92.726562 94.921875 92.542969 C 94.921875 92.34375 94.847656 92.230469 94.695312 92.191406 C 94.535156 92.152344 94.46875 92.039062 94.46875 91.820312 C 94.46875 91.648438 94.394531 91.480469 94.296875 91.445312 C 94.207031 91.410156 94.128906 91.304688 94.128906 91.210938 C 94.128906 91.113281 94.050781 91.039062 93.960938 91.039062 C 93.847656 91.039062 93.789062 90.925781 93.789062 90.699219 C 93.789062 90.476562 93.734375 90.363281 93.621094 90.363281 C 93.507812 90.363281 93.449219 90.25 93.449219 90.027344 C 93.449219 89.800781 93.394531 89.691406 93.28125 89.691406 C 93.175781 89.691406 93.113281 89.582031 93.113281 89.40625 C 93.113281 89.25 93.035156 89.09375 92.941406 89.058594 C 92.847656 89.023438 92.773438 88.921875 92.773438 88.832031 C 92.773438 88.746094 92.695312 88.644531 92.601562 88.609375 C 92.507812 88.570312 92.433594 88.402344 92.433594 88.21875 C 92.433594 88.003906 92.375 87.894531 92.265625 87.894531 C 92.101562 87.894531 92.046875 87.769531 92.085938 87.472656 C 92.097656 87.394531 92.03125 87.300781 91.9375 87.265625 C 91.84375 87.230469 91.738281 87.054688 91.699219 86.875 C 91.65625 86.695312 91.554688 86.546875 91.464844 86.546875 C 91.375 86.546875 91.304688 86.472656 91.304688 86.378906 C 91.304688 86.285156 91.226562 86.210938 91.132812 86.210938 C 91.015625 86.210938 90.964844 86.09375 90.964844 85.816406 C 90.964844 85.542969 90.914062 85.425781 90.796875 85.425781 C 90.683594 85.425781 90.625 85.3125 90.625 85.085938 C 90.625 84.863281 90.570312 84.75 90.457031 84.75 C 90.351562 84.75 90.285156 84.644531 90.285156 84.464844 C 90.285156 84.3125 90.210938 84.152344 90.117188 84.117188 C 90.023438 84.082031 89.949219 83.984375 89.949219 83.898438 C 89.949219 83.8125 89.871094 83.742188 89.777344 83.742188 C 89.664062 83.742188 89.609375 83.628906 89.609375 83.402344 C 89.609375 83.179688 89.550781 83.066406 89.441406 83.066406 C 89.332031 83.066406 89.269531 82.960938 89.269531 82.78125 C 89.269531 82.625 89.195312 82.46875 89.101562 82.433594 C 89.007812 82.398438 88.929688 82.273438 88.929688 82.15625 C 88.929688 82.039062 88.828125 81.84375 88.703125 81.71875 C 88.582031 81.597656 88.480469 81.445312 88.480469 81.382812 C 88.480469 81.320312 88.402344 81.269531 88.308594 81.269531 C 88.195312 81.269531 88.140625 81.160156 88.140625 80.933594 C 88.140625 80.710938 88.082031 80.597656 87.96875 80.597656 C 87.859375 80.597656 87.800781 80.484375 87.800781 80.261719 C 87.800781 80.035156 87.746094 79.925781 87.632812 79.925781 C 87.519531 79.925781 87.460938 79.8125 87.460938 79.585938 C 87.460938 79.363281 87.40625 79.25 87.292969 79.25 C 87.199219 79.25 87.121094 79.152344 87.121094 79.027344 C 87.121094 78.902344 87.046875 78.800781 86.953125 78.800781 C 86.839844 78.800781 86.785156 78.6875 86.785156 78.464844 C 86.785156 78.242188 86.726562 78.128906 86.613281 78.128906 C 86.507812 78.128906 86.445312 78.023438 86.445312 77.84375 C 86.445312 77.6875 86.367188 77.53125 86.277344 77.496094 C 86.183594 77.460938 86.105469 77.359375 86.105469 77.273438 C 86.105469 77.1875 86.03125 77.117188 85.9375 77.117188 C 85.824219 77.117188 85.765625 77.003906 85.765625 76.769531 C 85.765625 76.519531 85.707031 76.40625 85.539062 76.363281 C 85.378906 76.324219 85.316406 76.210938 85.316406 75.980469 C 85.316406 75.769531 85.257812 75.660156 85.144531 75.660156 C 85.039062 75.660156 84.976562 75.550781 84.976562 75.375 C 84.976562 75.21875 84.898438 75.0625 84.804688 75.027344 C 84.714844 74.988281 84.636719 74.890625 84.636719 74.804688 C 84.636719 74.71875 84.5625 74.648438 84.46875 74.648438 C 84.355469 74.648438 84.296875 74.535156 84.296875 74.3125 C 84.296875 74.085938 84.242188 73.976562 84.128906 73.976562 C 84.015625 73.976562 83.960938 73.863281 83.960938 73.632812 C 83.960938 73.4375 83.886719 73.265625 83.789062 73.230469 C 83.695312 73.195312 83.621094 73.074219 83.621094 72.960938 C 83.621094 72.847656 83.542969 72.679688 83.449219 72.585938 C 83.355469 72.496094 83.28125 72.363281 83.28125 72.300781 C 83.28125 72.234375 83.203125 72.179688 83.113281 72.179688 C 83 72.179688 82.941406 72.066406 82.941406 71.84375 C 82.941406 71.617188 82.886719 71.503906 82.773438 71.503906 C 82.664062 71.503906 82.601562 71.398438 82.601562 71.214844 C 82.601562 71.015625 82.53125 70.902344 82.378906 70.863281 C 82.21875 70.824219 82.152344 70.710938 82.152344 70.480469 C 82.152344 70.269531 82.09375 70.15625 81.980469 70.15625 C 81.886719 70.15625 81.8125 70.058594 81.8125 69.933594 C 81.8125 69.808594 81.738281 69.710938 81.640625 69.710938 C 81.53125 69.710938 81.472656 69.597656 81.472656 69.371094 C 81.472656 69.148438 81.417969 69.035156 81.304688 69.035156 C 81.191406 69.035156 81.132812 68.921875 81.132812 68.699219 C 81.132812 68.472656 81.078125 68.363281 80.964844 68.363281 C 80.859375 68.363281 80.796875 68.253906 80.796875 68.078125 C 80.796875 67.921875 80.71875 67.765625 80.625 67.730469 C 80.53125 67.695312 80.457031 67.59375 80.457031 67.507812 C 80.457031 67.421875 80.378906 67.351562 80.285156 67.351562 C 80.167969 67.351562 80.117188 67.234375 80.117188 66.957031 C 80.117188 66.695312 80.066406 66.566406 79.957031 66.566406 C 79.867188 66.566406 79.761719 66.414062 79.722656 66.230469 C 79.679688 66.042969 79.574219 65.890625 79.488281 65.890625 C 79.382812 65.890625 79.324219 65.773438 79.324219 65.554688 C 79.324219 65.332031 79.269531 65.21875 79.15625 65.21875 C 79.0625 65.21875 78.988281 65.144531 78.988281 65.050781 C 78.988281 64.957031 78.910156 64.882812 78.816406 64.882812 C 78.699219 64.882812 78.648438 64.765625 78.648438 64.488281 C 78.648438 64.214844 78.597656 64.097656 78.476562 64.097656 C 78.371094 64.097656 78.308594 63.988281 78.308594 63.8125 C 78.308594 63.65625 78.234375 63.5 78.140625 63.464844 C 78.046875 63.429688 77.96875 63.277344 77.96875 63.125 C 77.96875 62.976562 77.894531 62.824219 77.800781 62.789062 C 77.707031 62.753906 77.632812 62.65625 77.632812 62.570312 C 77.632812 62.484375 77.554688 62.414062 77.460938 62.414062 C 77.347656 62.414062 77.292969 62.300781 77.292969 62.074219 C 77.292969 61.851562 77.234375 61.738281 77.121094 61.738281 C 77.027344 61.738281 76.953125 61.640625 76.953125 61.523438 C 76.953125 61.402344 76.886719 61.238281 76.804688 61.15625 C 76.722656 61.078125 76.625 60.921875 76.582031 60.8125 C 76.542969 60.703125 76.429688 60.617188 76.335938 60.617188 C 76.21875 60.617188 76.160156 60.507812 76.160156 60.28125 C 76.160156 60.054688 76.105469 59.941406 75.992188 59.941406 C 75.878906 59.941406 75.824219 59.832031 75.824219 59.605469 C 75.824219 59.382812 75.765625 59.269531 75.652344 59.269531 C 75.539062 59.269531 75.484375 59.15625 75.484375 58.933594 C 75.484375 58.707031 75.425781 58.597656 75.316406 58.597656 C 75.222656 58.597656 75.144531 58.519531 75.144531 58.425781 C 75.144531 58.335938 75.070312 58.257812 74.976562 58.257812 C 74.863281 58.257812 74.804688 58.148438 74.804688 57.917969 C 74.804688 57.71875 74.734375 57.550781 74.636719 57.515625 C 74.542969 57.480469 74.46875 57.328125 74.46875 57.175781 C 74.46875 57.027344 74.390625 56.875 74.296875 56.839844 C 74.203125 56.804688 74.128906 56.65625 74.128906 56.511719 C 74.128906 56.359375 74.03125 56.195312 73.898438 56.125 C 73.773438 56.058594 73.699219 55.953125 73.734375 55.894531 C 73.773438 55.835938 73.722656 55.789062 73.625 55.789062 C 73.503906 55.789062 73.449219 55.683594 73.449219 55.453125 C 73.449219 55.191406 73.398438 55.117188 73.222656 55.117188 C 73.046875 55.117188 72.996094 55.042969 72.996094 54.777344 C 72.996094 54.578125 72.925781 54.410156 72.828125 54.371094 C 72.734375 54.335938 72.660156 54.183594 72.660156 54.035156 C 72.660156 53.882812 72.582031 53.734375 72.488281 53.699219 C 72.394531 53.660156 72.320312 53.5625 72.320312 53.476562 C 72.320312 53.390625 72.242188 53.320312 72.152344 53.320312 C 72.039062 53.320312 71.980469 53.207031 71.980469 52.984375 C 71.980469 52.757812 71.925781 52.648438 71.8125 52.648438 C 71.699219 52.648438 71.640625 52.535156 71.640625 52.308594 C 71.640625 52.085938 71.585938 51.972656 71.472656 51.972656 C 71.371094 51.972656 71.304688 51.867188 71.304688 51.707031 C 71.304688 51.558594 71.226562 51.375 71.132812 51.300781 C 71.039062 51.222656 70.964844 51.089844 70.964844 51.003906 C 70.964844 50.921875 70.886719 50.851562 70.792969 50.851562 C 70.6875 50.851562 70.625 50.742188 70.625 50.558594 C 70.625 50.363281 70.550781 50.25 70.398438 50.210938 C 70.238281 50.167969 70.171875 50.054688 70.171875 49.828125 C 70.171875 49.613281 70.113281 49.503906 70.003906 49.503906 C 69.890625 49.503906 69.835938 49.390625 69.835938 49.167969 C 69.835938 48.941406 69.777344 48.828125 69.664062 48.828125 C 69.570312 48.828125 69.496094 48.730469 69.496094 48.605469 C 69.496094 48.480469 69.417969 48.382812 69.324219 48.382812 C 69.210938 48.382812 69.15625 48.269531 69.15625 48.042969 C 69.15625 47.820312 69.097656 47.707031 68.988281 47.707031 C 68.878906 47.707031 68.816406 47.601562 68.816406 47.421875 C 68.816406 47.265625 68.742188 47.109375 68.648438 47.074219 C 68.554688 47.039062 68.476562 46.886719 68.476562 46.738281 C 68.476562 46.589844 68.402344 46.4375 68.308594 46.402344 C 68.214844 46.367188 68.140625 46.265625 68.140625 46.179688 C 68.140625 46.09375 68.0625 46.023438 67.96875 46.023438 C 67.855469 46.023438 67.800781 45.910156 67.800781 45.683594 C 67.800781 45.492188 67.730469 45.316406 67.636719 45.28125 C 67.550781 45.246094 67.425781 45.074219 67.363281 44.890625 C 67.296875 44.710938 67.191406 44.5625 67.128906 44.5625 C 67.0625 44.5625 67.007812 44.488281 67.007812 44.394531 C 67.007812 44.304688 66.933594 44.226562 66.839844 44.226562 C 66.726562 44.226562 66.671875 44.117188 66.671875 43.890625 C 66.671875 43.667969 66.613281 43.554688 66.5 43.554688 C 66.386719 43.554688 66.332031 43.441406 66.332031 43.21875 C 66.332031 42.992188 66.273438 42.878906 66.160156 42.878906 C 66.046875 42.878906 65.992188 42.769531 65.992188 42.542969 C 65.992188 42.320312 65.933594 42.207031 65.824219 42.207031 C 65.726562 42.207031 65.652344 42.105469 65.652344 41.984375 C 65.652344 41.859375 65.578125 41.757812 65.484375 41.757812 C 65.371094 41.757812 65.3125 41.644531 65.3125 41.421875 C 65.3125 41.195312 65.257812 41.085938 65.144531 41.085938 C 65.03125 41.085938 64.976562 40.972656 64.976562 40.746094 C 64.976562 40.523438 64.917969 40.410156 64.804688 40.410156 C 64.710938 40.410156 64.636719 40.3125 64.636719 40.195312 C 64.636719 40.074219 64.570312 39.910156 64.488281 39.828125 C 64.40625 39.75 64.308594 39.59375 64.265625 39.484375 C 64.226562 39.375 64.113281 39.289062 64.019531 39.289062 C 63.902344 39.289062 63.84375 39.179688 63.84375 38.953125 C 63.84375 38.726562 63.789062 38.613281 63.675781 38.613281 C 63.5625 38.613281 63.507812 38.503906 63.507812 38.277344 C 63.507812 38.054688 63.449219 37.941406 63.335938 37.941406 C 63.222656 37.941406 63.167969 37.828125 63.167969 37.605469 C 63.167969 37.378906 63.109375 37.269531 62.996094 37.269531 C 62.902344 37.269531 62.828125 37.191406 62.828125 37.097656 C 62.828125 37.007812 62.75 36.929688 62.660156 36.929688 C 62.546875 36.929688 62.488281 36.820312 62.488281 36.589844 C 62.488281 36.390625 62.417969 36.222656 62.320312 36.1875 C 62.226562 36.152344 62.148438 36 62.148438 35.847656 C 62.148438 35.699219 62.074219 35.546875 61.980469 35.511719 C 61.886719 35.476562 61.8125 35.324219 61.8125 35.175781 C 61.8125 35.027344 61.734375 34.875 61.640625 34.839844 C 61.546875 34.804688 61.472656 34.703125 61.472656 34.617188 C 61.472656 34.53125 61.371094 34.460938 61.246094 34.460938 C 61.070312 34.460938 61.019531 34.386719 61.019531 34.125 C 61.019531 33.902344 60.964844 33.789062 60.851562 33.789062 C 60.738281 33.789062 60.679688 33.675781 60.679688 33.449219 C 60.679688 33.25 60.609375 33.082031 60.511719 33.042969 C 60.417969 33.007812 60.34375 32.867188 60.34375 32.730469 C 60.34375 32.597656 60.191406 32.363281 60.007812 32.210938 C 59.789062 32.03125 59.671875 31.828125 59.667969 31.628906 C 59.664062 31.429688 59.601562 31.320312 59.496094 31.320312 C 59.386719 31.320312 59.324219 31.210938 59.324219 31.035156 C 59.324219 30.878906 59.25 30.722656 59.15625 30.6875 C 59.0625 30.648438 58.984375 30.5 58.984375 30.347656 C 58.984375 30.199219 58.910156 30.046875 58.816406 30.011719 C 58.722656 29.976562 58.648438 29.875 58.648438 29.789062 C 58.648438 29.699219 58.570312 29.597656 58.476562 29.5625 C 58.382812 29.527344 58.308594 29.371094 58.308594 29.21875 C 58.308594 29.035156 58.230469 28.921875 58.082031 28.882812 C 57.921875 28.839844 57.855469 28.726562 57.855469 28.5 C 57.855469 28.285156 57.796875 28.175781 57.6875 28.175781 C 57.59375 28.175781 57.515625 28.101562 57.515625 28.007812 C 57.515625 27.914062 57.441406 27.839844 57.347656 27.839844 C 57.230469 27.839844 57.179688 27.71875 57.179688 27.445312 C 57.179688 27.171875 57.125 27.054688 57.007812 27.054688 C 56.894531 27.054688 56.839844 26.941406 56.839844 26.714844 C 56.839844 26.492188 56.78125 26.378906 56.667969 26.378906 C 56.5625 26.378906 56.5 26.273438 56.5 26.09375 C 56.5 25.9375 56.421875 25.78125 56.332031 25.746094 C 56.238281 25.710938 56.160156 25.613281 56.160156 25.527344 C 56.160156 25.441406 56.085938 25.371094 55.992188 25.371094 C 55.878906 25.371094 55.820312 25.257812 55.820312 25.03125 C 55.820312 24.808594 55.765625 24.695312 55.652344 24.695312 C 55.546875 24.695312 55.484375 24.589844 55.484375 24.421875 C 55.484375 24.269531 55.429688 24.117188 55.367188 24.078125 C 55.304688 24.039062 55.179688 23.832031 55.089844 23.621094 C 55.003906 23.410156 54.875 23.238281 54.8125 23.238281 C 54.746094 23.238281 54.691406 23.160156 54.691406 23.066406 C 54.691406 22.976562 54.617188 22.898438 54.523438 22.898438 C 54.410156 22.898438 54.351562 22.789062 54.351562 22.5625 C 54.351562 22.339844 54.296875 22.226562 54.183594 22.226562 C 54.070312 22.226562 54.015625 22.113281 54.015625 21.890625 C 54.015625 21.664062 53.957031 21.550781 53.84375 21.550781 C 53.730469 21.550781 53.675781 21.441406 53.675781 21.214844 C 53.675781 20.992188 53.617188 20.878906 53.503906 20.878906 C 53.410156 20.878906 53.335938 20.777344 53.335938 20.65625 C 53.335938 20.53125 53.261719 20.429688 53.167969 20.429688 C 53.054688 20.429688 52.996094 20.316406 52.996094 20.09375 C 52.996094 19.867188 52.941406 19.757812 52.828125 19.757812 C 52.714844 19.757812 52.65625 19.644531 52.65625 19.417969 C 52.65625 19.203125 52.601562 19.082031 52.496094 19.082031 C 52.410156 19.082031 52.304688 18.929688 52.261719 18.746094 C 52.222656 18.5625 52.140625 18.410156 52.082031 18.410156 C 52.027344 18.410156 51.980469 18.332031 51.980469 18.242188 C 51.980469 18.148438 51.878906 18.074219 51.753906 18.074219 C 51.570312 18.074219 51.527344 17.996094 51.527344 17.679688 C 51.527344 17.40625 51.476562 17.285156 51.359375 17.285156 C 51.246094 17.285156 51.1875 17.175781 51.1875 16.949219 C 51.1875 16.726562 51.132812 16.613281 51.019531 16.613281 C 50.90625 16.613281 50.851562 16.5 50.851562 16.277344 C 50.851562 16.089844 50.800781 15.941406 50.738281 15.941406 C 50.519531 15.941406 50.171875 15.488281 50.171875 15.210938 C 50.171875 15.035156 50.109375 14.929688 50.003906 14.929688 C 49.898438 14.929688 49.832031 14.824219 49.832031 14.664062 C 49.832031 14.515625 49.757812 14.332031 49.664062 14.257812 C 49.570312 14.179688 49.492188 14.007812 49.492188 13.878906 C 49.488281 13.628906 49.046875 13.132812 48.828125 13.132812 C 48.757812 13.132812 48.703125 12.980469 48.703125 12.796875 C 48.703125 12.574219 48.648438 12.460938 48.535156 12.460938 C 48.421875 12.460938 48.363281 12.347656 48.363281 12.125 C 48.363281 11.898438 48.308594 11.785156 48.195312 11.785156 C 48.101562 11.785156 48.023438 11.6875 48.023438 11.5625 C 48.023438 11.4375 47.949219 11.335938 47.855469 11.335938 C 47.742188 11.335938 47.6875 11.226562 47.6875 11 C 47.6875 10.777344 47.628906 10.664062 47.515625 10.664062 C 47.402344 10.664062 47.347656 10.550781 47.347656 10.328125 C 47.347656 10.101562 47.289062 9.992188 47.175781 9.992188 C 47.070312 9.992188 47.007812 9.882812 47.007812 9.707031 C 47.007812 9.550781 46.933594 9.394531 46.839844 9.359375 C 46.746094 9.320312 46.667969 9.222656 46.667969 9.136719 C 46.667969 9.050781 46.59375 8.980469 46.5 8.980469 C 46.386719 8.980469 46.328125 8.867188 46.328125 8.640625 C 46.328125 8.441406 46.257812 8.273438 46.160156 8.234375 C 46.066406 8.199219 45.992188 8.042969 45.992188 7.890625 C 45.992188 7.707031 45.914062 7.59375 45.765625 7.554688 C 45.605469 7.511719 45.539062 7.398438 45.539062 7.171875 C 45.539062 6.957031 45.480469 6.847656 45.371094 6.847656 C 45.277344 6.847656 45.199219 6.773438 45.199219 6.679688 C 45.199219 6.585938 45.125 6.511719 45.03125 6.511719 C 44.917969 6.511719 44.859375 6.398438 44.859375 6.175781 C 44.859375 5.949219 44.804688 5.835938 44.691406 5.835938 C 44.578125 5.835938 44.523438 5.726562 44.523438 5.496094 C 44.523438 5.296875 44.453125 5.128906 44.351562 5.09375 C 44.257812 5.054688 44.183594 4.90625 44.183594 4.753906 C 44.183594 4.605469 44.105469 4.453125 44.011719 4.417969 C 43.921875 4.382812 43.84375 4.285156 43.84375 4.199219 C 43.84375 4.113281 43.769531 4.042969 43.675781 4.042969 C 43.5625 4.042969 43.503906 3.929688 43.503906 3.703125 C 43.503906 3.480469 43.449219 3.367188 43.335938 3.367188 C 43.230469 3.367188 43.164062 3.261719 43.164062 3.082031 C 43.164062 2.925781 43.089844 2.769531 42.996094 2.734375 C 42.902344 2.699219 42.828125 2.574219 42.828125 2.457031 C 42.828125 2.339844 42.726562 2.15625 42.601562 2.050781 C 42.476562 1.945312 42.375 1.792969 42.375 1.714844 C 42.375 1.636719 42.296875 1.570312 42.207031 1.570312 C 42.09375 1.570312 42.035156 1.460938 42.035156 1.234375 C 42.035156 1.011719 41.980469 0.898438 41.867188 0.898438 C 41.753906 0.898438 41.695312 0.785156 41.695312 0.5625 C 41.695312 0.335938 41.640625 0.222656 41.527344 0.222656 C 41.433594 0.222656 41.359375 0.175781 41.359375 0.113281 C 41.359375 0.0507812 41.207031 0 41.019531 0 C 40.734375 0 40.679688 0.0429688 40.679688 0.28125 "/>
<path style=" stroke:none;fill-rule:evenodd;fill:rgb(48.627451%,73.72549%,73.333333%);fill-opacity:1;" d="M 16.425781 87.050781 C 16.378906 87.175781 16.183594 87.21875 15.695312 87.21875 C 15.179688 87.21875 15.027344 87.257812 15.027344 87.390625 C 15.027344 87.519531 14.878906 87.558594 14.347656 87.558594 C 13.847656 87.558594 13.648438 87.601562 13.601562 87.726562 C 13.5625 87.820312 13.394531 87.894531 13.207031 87.894531 C 12.992188 87.894531 12.882812 87.953125 12.882812 88.0625 C 12.882812 88.183594 12.757812 88.230469 12.425781 88.230469 C 12.125 88.230469 11.949219 88.289062 11.90625 88.398438 C 11.871094 88.492188 11.71875 88.566406 11.570312 88.566406 C 11.421875 88.566406 11.238281 88.667969 11.160156 88.792969 C 11.074219 88.929688 10.898438 89.015625 10.707031 89.015625 C 10.507812 89.015625 10.394531 89.074219 10.394531 89.183594 C 10.394531 89.296875 10.28125 89.351562 10.058594 89.351562 C 9.832031 89.351562 9.71875 89.410156 9.71875 89.523438 C 9.71875 89.613281 9.640625 89.691406 9.546875 89.691406 C 9.457031 89.691406 9.378906 89.765625 9.378906 89.859375 C 9.378906 89.972656 9.265625 90.027344 9.039062 90.027344 C 8.8125 90.027344 8.699219 90.082031 8.699219 90.195312 C 8.699219 90.289062 8.601562 90.363281 8.476562 90.363281 C 8.347656 90.363281 8.25 90.4375 8.25 90.53125 C 8.25 90.628906 8.144531 90.699219 8.003906 90.699219 C 7.859375 90.699219 7.554688 90.910156 7.269531 91.207031 C 7.003906 91.484375 6.730469 91.710938 6.667969 91.710938 C 6.605469 91.710938 6.554688 91.8125 6.554688 91.933594 C 6.554688 92.058594 6.480469 92.160156 6.382812 92.160156 C 6.292969 92.160156 6.214844 92.234375 6.214844 92.328125 C 6.214844 92.421875 6.140625 92.496094 6.046875 92.496094 C 5.953125 92.496094 5.875 92.570312 5.875 92.664062 C 5.875 92.757812 5.808594 92.832031 5.730469 92.832031 C 5.648438 92.832031 5.457031 92.984375 5.304688 93.164062 C 5.152344 93.347656 4.964844 93.5 4.886719 93.5 C 4.808594 93.503906 4.746094 93.582031 4.746094 93.675781 C 4.746094 93.769531 4.667969 93.84375 4.578125 93.84375 C 4.484375 93.84375 4.40625 93.914062 4.40625 94 C 4.40625 94.085938 4.332031 94.183594 4.238281 94.222656 C 4.144531 94.257812 4.066406 94.363281 4.066406 94.457031 C 4.066406 94.550781 3.992188 94.628906 3.898438 94.628906 C 3.785156 94.628906 3.730469 94.742188 3.730469 94.964844 C 3.730469 95.191406 3.671875 95.304688 3.558594 95.304688 C 3.464844 95.304688 3.390625 95.378906 3.390625 95.472656 C 3.390625 95.5625 3.3125 95.640625 3.21875 95.640625 C 3.109375 95.640625 3.050781 95.75 3.050781 95.976562 C 3.050781 96.199219 2.996094 96.3125 2.882812 96.3125 C 2.789062 96.3125 2.710938 96.390625 2.710938 96.480469 C 2.710938 96.574219 2.640625 96.648438 2.554688 96.648438 C 2.46875 96.648438 2.363281 96.78125 2.324219 96.945312 C 2.28125 97.105469 2.175781 97.3125 2.085938 97.402344 C 1.996094 97.492188 1.921875 97.664062 1.921875 97.785156 C 1.921875 97.90625 1.84375 98.03125 1.75 98.070312 C 1.65625 98.105469 1.582031 98.273438 1.582031 98.457031 C 1.582031 98.671875 1.523438 98.78125 1.414062 98.78125 C 1.285156 98.78125 1.242188 98.914062 1.242188 99.289062 C 1.242188 99.660156 1.199219 99.792969 1.074219 99.792969 C 0.949219 99.792969 0.902344 99.925781 0.902344 100.296875 C 0.902344 100.671875 0.859375 100.804688 0.734375 100.804688 C 0.605469 100.804688 0.566406 100.941406 0.566406 101.363281 C 0.566406 101.789062 0.523438 101.925781 0.394531 101.925781 C 0.261719 101.925781 0.226562 102.074219 0.226562 102.597656 C 0.226562 102.972656 0.175781 103.273438 0.113281 103.273438 C 0.0390625 103.273438 0 104.695312 0 107.3125 C 0 109.933594 0.0390625 111.355469 0.113281 111.355469 C 0.175781 111.355469 0.226562 111.65625 0.226562 112.027344 C 0.226562 112.550781 0.261719 112.703125 0.394531 112.703125 C 0.527344 112.703125 0.566406 112.851562 0.566406 113.375 C 0.566406 113.898438 0.601562 114.050781 0.734375 114.050781 C 0.851562 114.050781 0.902344 114.167969 0.902344 114.441406 C 0.902344 114.714844 0.957031 114.835938 1.074219 114.835938 C 1.195312 114.835938 1.242188 114.960938 1.242188 115.289062 C 1.242188 115.585938 1.300781 115.761719 1.414062 115.804688 C 1.507812 115.839844 1.582031 116.007812 1.582031 116.195312 C 1.582031 116.40625 1.640625 116.519531 1.75 116.519531 C 1.855469 116.519531 1.921875 116.625 1.921875 116.792969 C 1.921875 116.941406 1.972656 117.097656 2.035156 117.136719 C 2.097656 117.175781 2.222656 117.378906 2.3125 117.59375 C 2.402344 117.804688 2.527344 117.976562 2.59375 117.976562 C 2.660156 117.976562 2.710938 118.054688 2.710938 118.144531 C 2.710938 118.238281 2.789062 118.316406 2.882812 118.316406 C 2.996094 118.316406 3.050781 118.425781 3.050781 118.652344 C 3.050781 118.875 3.109375 118.988281 3.21875 118.988281 C 3.3125 118.988281 3.390625 119.0625 3.390625 119.15625 C 3.390625 119.25 3.464844 119.324219 3.558594 119.324219 C 3.671875 119.324219 3.730469 119.4375 3.730469 119.660156 C 3.730469 119.886719 3.785156 120 3.898438 120 C 3.992188 120 4.066406 120.0625 4.066406 120.144531 C 4.066406 120.222656 4.21875 120.414062 4.402344 120.566406 C 4.585938 120.714844 4.738281 120.902344 4.742188 120.980469 C 4.742188 121.058594 4.824219 121.121094 4.914062 121.121094 C 5.007812 121.121094 5.085938 121.195312 5.085938 121.289062 C 5.085938 121.382812 5.160156 121.457031 5.253906 121.457031 C 5.347656 121.457031 5.425781 121.535156 5.425781 121.625 C 5.425781 121.71875 5.523438 121.792969 5.648438 121.792969 C 5.777344 121.792969 5.875 121.871094 5.875 121.960938 C 5.875 122.054688 5.953125 122.132812 6.046875 122.132812 C 6.140625 122.132812 6.214844 122.207031 6.214844 122.300781 C 6.214844 122.390625 6.292969 122.46875 6.382812 122.46875 C 6.476562 122.46875 6.554688 122.542969 6.554688 122.636719 C 6.554688 122.730469 6.628906 122.804688 6.722656 122.804688 C 6.816406 122.804688 6.894531 122.878906 6.894531 122.972656 C 6.894531 123.066406 6.964844 123.140625 7.050781 123.140625 C 7.136719 123.140625 7.230469 123.230469 7.257812 123.339844 C 7.285156 123.449219 7.507812 123.636719 7.75 123.757812 C 7.992188 123.882812 8.234375 124.046875 8.28125 124.125 C 8.332031 124.199219 8.445312 124.265625 8.539062 124.265625 C 8.628906 124.265625 8.699219 124.339844 8.699219 124.433594 C 8.699219 124.542969 8.8125 124.601562 9.039062 124.601562 C 9.265625 124.601562 9.378906 124.65625 9.378906 124.769531 C 9.378906 124.863281 9.457031 124.9375 9.546875 124.9375 C 9.640625 124.9375 9.71875 125.011719 9.71875 125.105469 C 9.71875 125.21875 9.832031 125.273438 10.058594 125.273438 C 10.28125 125.273438 10.394531 125.332031 10.394531 125.441406 C 10.394531 125.554688 10.507812 125.609375 10.722656 125.609375 C 10.910156 125.609375 11.078125 125.683594 11.113281 125.78125 C 11.152344 125.878906 11.324219 125.949219 11.523438 125.949219 C 11.75 125.949219 11.863281 126.003906 11.863281 126.117188 C 11.863281 126.242188 11.996094 126.285156 12.375 126.285156 C 12.804688 126.285156 12.882812 126.316406 12.882812 126.507812 C 12.882812 126.699219 12.957031 126.734375 13.378906 126.734375 C 13.714844 126.734375 13.894531 126.789062 13.941406 126.902344 C 13.984375 127.015625 14.164062 127.070312 14.515625 127.070312 C 14.898438 127.070312 15.027344 127.113281 15.027344 127.238281 C 15.027344 127.371094 15.179688 127.40625 15.695312 127.40625 C 16.183594 127.40625 16.378906 127.453125 16.425781 127.574219 C 16.480469 127.722656 17.035156 127.742188 20.449219 127.742188 C 23.894531 127.742188 24.40625 127.722656 24.40625 127.574219 C 24.40625 127.441406 24.566406 127.40625 25.140625 127.40625 C 25.71875 127.40625 25.878906 127.371094 25.878906 127.238281 C 25.878906 127.113281 26.015625 127.070312 26.433594 127.070312 C 26.777344 127.070312 27.054688 127.007812 27.160156 126.902344 C 27.253906 126.808594 27.464844 126.734375 27.632812 126.734375 C 27.835938 126.734375 27.949219 126.664062 27.992188 126.507812 C 28.039062 126.332031 28.144531 126.285156 28.492188 126.285156 C 28.78125 126.285156 28.957031 126.226562 29 126.117188 C 29.039062 126.019531 29.207031 125.949219 29.390625 125.949219 C 29.605469 125.949219 29.71875 125.890625 29.71875 125.78125 C 29.71875 125.667969 29.832031 125.609375 30.058594 125.609375 C 30.285156 125.609375 30.398438 125.554688 30.398438 125.441406 C 30.398438 125.332031 30.511719 125.273438 30.738281 125.273438 C 30.941406 125.273438 31.109375 125.203125 31.148438 125.105469 C 31.183594 125.011719 31.28125 124.9375 31.371094 124.9375 C 31.457031 124.9375 31.527344 124.863281 31.527344 124.769531 C 31.527344 124.65625 31.640625 124.601562 31.867188 124.601562 C 32.09375 124.601562 32.203125 124.542969 32.203125 124.433594 C 32.203125 124.339844 32.28125 124.265625 32.375 124.265625 C 32.46875 124.265625 32.542969 124.195312 32.542969 124.109375 C 32.542969 124.023438 32.683594 123.917969 32.851562 123.875 C 33.019531 123.832031 33.300781 123.652344 33.472656 123.46875 C 33.648438 123.289062 33.839844 123.140625 33.902344 123.140625 C 33.960938 123.140625 34.011719 123.066406 34.011719 122.972656 C 34.011719 122.878906 34.089844 122.804688 34.183594 122.804688 C 34.277344 122.804688 34.351562 122.730469 34.351562 122.636719 C 34.351562 122.542969 34.429688 122.46875 34.523438 122.46875 C 34.613281 122.46875 34.691406 122.390625 34.691406 122.300781 C 34.691406 122.207031 34.765625 122.132812 34.859375 122.132812 C 34.953125 122.132812 35.03125 122.054688 35.03125 121.960938 C 35.03125 121.871094 35.105469 121.792969 35.199219 121.792969 C 35.292969 121.792969 35.367188 121.71875 35.367188 121.625 C 35.367188 121.535156 35.445312 121.457031 35.539062 121.457031 C 35.632812 121.457031 35.707031 121.382812 35.707031 121.289062 C 35.707031 121.195312 35.785156 121.121094 35.878906 121.121094 C 35.972656 121.121094 36.046875 121.046875 36.046875 120.953125 C 36.046875 120.859375 36.125 120.785156 36.214844 120.785156 C 36.308594 120.785156 36.386719 120.738281 36.386719 120.679688 C 36.386719 120.625 36.5625 120.398438 36.78125 120.175781 C 37 119.953125 37.175781 119.667969 37.175781 119.546875 C 37.175781 119.425781 37.253906 119.324219 37.347656 119.324219 C 37.441406 119.324219 37.515625 119.25 37.515625 119.15625 C 37.515625 119.0625 37.59375 118.988281 37.683594 118.988281 C 37.796875 118.988281 37.855469 118.875 37.855469 118.652344 C 37.855469 118.425781 37.910156 118.316406 38.023438 118.316406 C 38.117188 118.316406 38.195312 118.246094 38.195312 118.160156 C 38.195312 118.070312 38.269531 117.972656 38.363281 117.9375 C 38.457031 117.902344 38.53125 117.75 38.53125 117.601562 C 38.53125 117.449219 38.609375 117.300781 38.703125 117.261719 C 38.800781 117.226562 38.871094 117.058594 38.871094 116.859375 C 38.871094 116.632812 38.929688 116.519531 39.042969 116.519531 C 39.15625 116.519531 39.210938 116.40625 39.210938 116.183594 C 39.210938 115.957031 39.265625 115.84375 39.378906 115.84375 C 39.503906 115.84375 39.550781 115.714844 39.550781 115.351562 C 39.550781 114.957031 39.59375 114.851562 39.777344 114.800781 C 39.960938 114.753906 40.003906 114.648438 40.003906 114.226562 C 40.003906 113.84375 40.046875 113.710938 40.171875 113.710938 C 40.296875 113.710938 40.339844 113.582031 40.339844 113.207031 C 40.339844 112.832031 40.386719 112.703125 40.511719 112.703125 C 40.644531 112.703125 40.679688 112.546875 40.679688 111.972656 C 40.679688 111.398438 40.714844 111.242188 40.847656 111.242188 C 40.996094 111.242188 41.019531 110.730469 41.019531 107.308594 C 41.019531 103.917969 40.996094 103.367188 40.847656 103.3125 C 40.726562 103.265625 40.679688 103.070312 40.679688 102.585938 C 40.679688 102.074219 40.640625 101.925781 40.511719 101.925781 C 40.378906 101.925781 40.339844 101.785156 40.339844 101.320312 C 40.339844 100.921875 40.285156 100.671875 40.171875 100.578125 C 40.078125 100.5 40.003906 100.3125 40.003906 100.160156 C 40.003906 99.980469 39.925781 99.863281 39.777344 99.824219 C 39.59375 99.777344 39.550781 99.671875 39.550781 99.273438 C 39.550781 98.910156 39.503906 98.78125 39.378906 98.78125 C 39.265625 98.78125 39.210938 98.671875 39.210938 98.441406 C 39.210938 98.242188 39.140625 98.074219 39.042969 98.039062 C 38.945312 98 38.871094 97.832031 38.871094 97.648438 C 38.871094 97.433594 38.8125 97.324219 38.703125 97.324219 C 38.597656 97.324219 38.53125 97.21875 38.53125 97.039062 C 38.53125 96.882812 38.457031 96.726562 38.363281 96.691406 C 38.269531 96.65625 38.195312 96.554688 38.195312 96.46875 C 38.195312 96.382812 38.117188 96.3125 38.023438 96.3125 C 37.910156 96.3125 37.855469 96.199219 37.855469 95.976562 C 37.855469 95.75 37.796875 95.640625 37.683594 95.640625 C 37.59375 95.640625 37.515625 95.5625 37.515625 95.472656 C 37.515625 95.378906 37.441406 95.304688 37.347656 95.304688 C 37.253906 95.304688 37.175781 95.210938 37.175781 95.09375 C 37.175781 94.980469 37.074219 94.773438 36.949219 94.628906 C 36.828125 94.488281 36.726562 94.328125 36.726562 94.273438 C 36.726562 94.222656 36.648438 94.179688 36.554688 94.179688 C 36.460938 94.179688 36.386719 94.105469 36.386719 94.011719 C 36.386719 93.917969 36.308594 93.84375 36.214844 93.84375 C 36.125 93.84375 36.046875 93.769531 36.046875 93.675781 C 36.046875 93.582031 35.972656 93.507812 35.878906 93.507812 C 35.785156 93.507812 35.707031 93.429688 35.707031 93.339844 C 35.707031 93.246094 35.632812 93.171875 35.539062 93.171875 C 35.445312 93.171875 35.367188 93.09375 35.367188 93 C 35.367188 92.910156 35.292969 92.832031 35.199219 92.832031 C 35.105469 92.832031 35.03125 92.757812 35.03125 92.664062 C 35.03125 92.570312 34.953125 92.496094 34.859375 92.496094 C 34.765625 92.496094 34.691406 92.421875 34.691406 92.328125 C 34.691406 92.234375 34.613281 92.160156 34.523438 92.160156 C 34.429688 92.160156 34.351562 92.101562 34.351562 92.03125 C 34.351562 91.882812 33.492188 91.039062 33.34375 91.039062 C 33.289062 91.039062 33.21875 90.960938 33.179688 90.867188 C 33.144531 90.777344 32.988281 90.699219 32.832031 90.699219 C 32.652344 90.699219 32.542969 90.636719 32.542969 90.53125 C 32.542969 90.4375 32.46875 90.363281 32.375 90.363281 C 32.28125 90.363281 32.203125 90.289062 32.203125 90.195312 C 32.203125 90.082031 32.09375 90.027344 31.867188 90.027344 C 31.640625 90.027344 31.527344 89.972656 31.527344 89.859375 C 31.527344 89.765625 31.457031 89.691406 31.371094 89.691406 C 31.28125 89.691406 31.183594 89.613281 31.148438 89.523438 C 31.109375 89.421875 30.941406 89.351562 30.738281 89.351562 C 30.511719 89.351562 30.398438 89.296875 30.398438 89.183594 C 30.398438 89.074219 30.285156 89.015625 30.070312 89.015625 C 29.839844 89.015625 29.726562 88.953125 29.6875 88.792969 C 29.648438 88.644531 29.53125 88.566406 29.347656 88.566406 C 29.191406 88.566406 29.035156 88.492188 29 88.398438 C 28.957031 88.289062 28.78125 88.230469 28.492188 88.230469 C 28.203125 88.230469 28.027344 88.171875 27.984375 88.0625 C 27.9375 87.945312 27.757812 87.894531 27.40625 87.894531 C 27.027344 87.894531 26.894531 87.851562 26.894531 87.726562 C 26.894531 87.601562 26.761719 87.558594 26.386719 87.558594 C 26.007812 87.558594 25.878906 87.511719 25.878906 87.390625 C 25.878906 87.257812 25.71875 87.21875 25.140625 87.21875 C 24.566406 87.21875 24.40625 87.183594 24.40625 87.050781 C 24.40625 86.90625 23.894531 86.882812 20.449219 86.882812 C 17.035156 86.882812 16.480469 86.90625 16.425781 87.050781 "/>
</g>
</svg>
